<?xml version="1.0" encoding="UTF-8" standalone="no"?><!DOCTYPE svg PUBLIC "-//W3C//DTD SVG 1.1//EN" "http://www.w3.org/Graphics/SVG/1.1/DTD/svg11.dtd"><svg width="100%" height="100%" viewBox="0 0 1080 1080" version="1.1" xmlns="http://www.w3.org/2000/svg" xmlns:xlink="http://www.w3.org/1999/xlink" xml:space="preserve" xmlns:serif="http://www.serif.com/" style="fill-rule:evenodd;clip-rule:evenodd;stroke-linecap:round;stroke-linejoin:round;stroke-miterlimit:1.5;"><rect id="Laufen" x="-0" y="0" width="1080" height="1080" style="fill:none;"/><g><rect x="0" y="0" width="1080" height="1080" style="fill:#231f20;"/><path d="M1080,0l-1080,0l0,1080l1080,0l-0,-1080Zm-20,20c-0,134.468 -0,905.532 -0,1040c-0,-0 -1040,0 -1040,0c0,-0 0,-1040 0,-1040c0,0 1040,0 1040,0l-0,0Z" style="fill:url(#_Linear1);"/><g><path d="M584.817,226.563l-50.413,119.089l-169.439,-9.381l219.852,-109.708Z" style="fill:url(#_Linear2);stroke:#231f20;stroke-width:8px;"/><path d="M584.817,226.563l-33.025,417.88l-93.547,-126.566l126.572,-291.314Z" style="fill:url(#_Linear3);stroke:#231f20;stroke-width:8px;"/><path d="M584.817,226.563l-20.686,261.753l160.325,-206.446l-139.639,-55.307Z" style="fill:url(#_Linear4);stroke:#231f20;stroke-width:8px;"/><path d="M644.293,104.573l0,145.547l158.859,-127.661l-158.859,-17.886Z" style="fill:url(#_Linear5);stroke:#231f20;stroke-width:8px;"/><path d="M803.152,122.459l-158.859,127.661l142.115,-56.088l16.744,-71.573Z" style="fill:url(#_Linear6);stroke:#231f20;stroke-width:8px;"/><path d="M652.694,374.276l210.856,78.853l-249.426,-29.188l38.57,-49.665Z" style="fill:url(#_Linear7);stroke:#231f20;stroke-width:8px;"/><path d="M564.131,488.316l248.057,249.984l-260.396,-93.857l12.339,-156.127Z" style="fill:url(#_Linear8);stroke:#231f20;stroke-width:8px;"/><path d="M458.245,517.877l93.547,126.566l-145.684,156.714l52.137,-283.28Z" style="fill:url(#_Linear9);stroke:#231f20;stroke-width:8px;"/><path d="M425.056,698.142l-17.401,94.607l-232.151,38.273l249.552,-132.88Z" style="fill:url(#_Linear10);stroke:#231f20;stroke-width:8px;"/><path d="M694.082,695.73l106.194,38.276l-1.11,251.421l-105.084,-289.697Z" style="fill:url(#_Linear11);stroke:#231f20;stroke-width:8px;"/><path d="M448.513,340.538l-153.692,203.782l81.006,-207.448l72.686,3.666Z" style="fill:url(#_Linear12);stroke:#231f20;stroke-width:8px;"/></g></g><defs><linearGradient id="_Linear1" x1="0" y1="0" x2="1" y2="0" gradientUnits="userSpaceOnUse" gradientTransform="matrix(653.951,-1080,1080,653.951,233.64,1080)"><stop offset="0" style="stop-color:#f1a000;stop-opacity:1"/><stop offset="1" style="stop-color:#e04a7f;stop-opacity:1"/></linearGradient><linearGradient id="_Linear2" x1="0" y1="0" x2="1" y2="0" gradientUnits="userSpaceOnUse" gradientTransform="matrix(408.104,-607.803,778.124,522.464,367.176,774.502)"><stop offset="0" style="stop-color:#f1a000;stop-opacity:1"/><stop offset="1" style="stop-color:#e04a7f;stop-opacity:1"/></linearGradient><linearGradient id="_Linear3" x1="0" y1="0" x2="1" y2="0" gradientUnits="userSpaceOnUse" gradientTransform="matrix(408.104,-607.803,778.124,522.464,367.176,774.502)"><stop offset="0" style="stop-color:#f1a000;stop-opacity:1"/><stop offset="1" style="stop-color:#e04a7f;stop-opacity:1"/></linearGradient><linearGradient id="_Linear4" x1="0" y1="0" x2="1" y2="0" gradientUnits="userSpaceOnUse" gradientTransform="matrix(408.104,-607.803,778.124,522.464,367.176,774.502)"><stop offset="0" style="stop-color:#f1a000;stop-opacity:1"/><stop offset="1" style="stop-color:#e04a7f;stop-opacity:1"/></linearGradient><linearGradient id="_Linear5" x1="0" y1="0" x2="1" y2="0" gradientUnits="userSpaceOnUse" gradientTransform="matrix(408.104,-607.803,778.124,522.464,367.176,774.502)"><stop offset="0" style="stop-color:#f1a000;stop-opacity:1"/><stop offset="1" style="stop-color:#e04a7f;stop-opacity:1"/></linearGradient><linearGradient id="_Linear6" x1="0" y1="0" x2="1" y2="0" gradientUnits="userSpaceOnUse" gradientTransform="matrix(408.104,-607.803,778.124,522.464,367.176,774.502)"><stop offset="0" style="stop-color:#f1a000;stop-opacity:1"/><stop offset="1" style="stop-color:#e04a7f;stop-opacity:1"/></linearGradient><linearGradient id="_Linear7" x1="0" y1="0" x2="1" y2="0" gradientUnits="userSpaceOnUse" gradientTransform="matrix(408.104,-607.803,778.124,522.464,367.176,774.502)"><stop offset="0" style="stop-color:#f1a000;stop-opacity:1"/><stop offset="1" style="stop-color:#e04a7f;stop-opacity:1"/></linearGradient><linearGradient id="_Linear8" x1="0" y1="0" x2="1" y2="0" gradientUnits="userSpaceOnUse" gradientTransform="matrix(408.104,-607.803,778.124,522.464,367.176,774.502)"><stop offset="0" style="stop-color:#f1a000;stop-opacity:1"/><stop offset="1" style="stop-color:#e04a7f;stop-opacity:1"/></linearGradient><linearGradient id="_Linear9" x1="0" y1="0" x2="1" y2="0" gradientUnits="userSpaceOnUse" gradientTransform="matrix(408.104,-607.803,778.124,522.464,367.176,774.502)"><stop offset="0" style="stop-color:#f1a000;stop-opacity:1"/><stop offset="1" style="stop-color:#e04a7f;stop-opacity:1"/></linearGradient><linearGradient id="_Linear10" x1="0" y1="0" x2="1" y2="0" gradientUnits="userSpaceOnUse" gradientTransform="matrix(408.104,-607.803,778.124,522.464,367.176,774.502)"><stop offset="0" style="stop-color:#f1a000;stop-opacity:1"/><stop offset="1" style="stop-color:#e04a7f;stop-opacity:1"/></linearGradient><linearGradient id="_Linear11" x1="0" y1="0" x2="1" y2="0" gradientUnits="userSpaceOnUse" gradientTransform="matrix(408.104,-607.803,778.124,522.464,367.176,774.502)"><stop offset="0" style="stop-color:#f1a000;stop-opacity:1"/><stop offset="1" style="stop-color:#e04a7f;stop-opacity:1"/></linearGradient><linearGradient id="_Linear12" x1="0" y1="0" x2="1" y2="0" gradientUnits="userSpaceOnUse" gradientTransform="matrix(408.104,-607.803,778.124,522.464,367.176,774.502)"><stop offset="0" style="stop-color:#f1a000;stop-opacity:1"/><stop offset="1" style="stop-color:#e04a7f;stop-opacity:1"/></linearGradient></defs></svg>