<?xml version="1.0" encoding="UTF-8" standalone="no"?><!DOCTYPE svg PUBLIC "-//W3C//DTD SVG 1.1//EN" "http://www.w3.org/Graphics/SVG/1.1/DTD/svg11.dtd"><svg width="100%" height="100%" viewBox="0 0 1080 1080" version="1.1" xmlns="http://www.w3.org/2000/svg" xmlns:xlink="http://www.w3.org/1999/xlink" xml:space="preserve" xmlns:serif="http://www.serif.com/" style="fill-rule:evenodd;clip-rule:evenodd;stroke-linecap:round;stroke-linejoin:round;stroke-miterlimit:1.5;"><rect id="Rad-fahren" serif:id="Rad fahren" x="-0" y="0" width="1080" height="1080" style="fill:none;"/><clipPath id="_clip1"><rect x="-0" y="0" width="1080" height="1080"/></clipPath><g clip-path="url(#_clip1)"><g><rect x="0" y="0" width="1080" height="1080" style="fill:#2f292b;"/><path d="M1080,0l-1080,0l0,1080l1080,0l0,-1080Zm-20,20l0,1040c-0,-0 -1040,0 -1040,0c0,-0 0,-894.157 0,-1040c134.468,0 905.532,0 1040,0l0,0Z" style="fill:url(#_Linear2);"/><g><path d="M301.349,642.345l120.209,-207.682l115.107,207.874l-235.316,-0.192Z" style="fill:url(#_Linear3);stroke:#2f292b;stroke-width:8px;"/><path d="M536.665,642.537l-135.331,-244.397l400.299,0l-264.968,244.397Z" style="fill:url(#_Linear4);stroke:#2f292b;stroke-width:8px;"/><path d="M401.334,398.14l0,-50.306l114.526,50.306l-114.526,0Z" style="fill:url(#_Linear5);stroke:#2f292b;stroke-width:8px;"/><path d="M827.758,347.834l-54.801,0l28.676,50.306l26.125,-50.306Z" style="fill:url(#_Linear6);stroke:#2f292b;stroke-width:8px;"/><path d="M214.067,490.783l174.897,0.192l-87.615,151.37l-87.282,-151.562Z" style="fill:url(#_Linear7);stroke:#2f292b;stroke-width:8px;"/><path d="M126.452,642.152l174.897,0.193l-87.615,151.369l-87.282,-151.562Z" style="fill:url(#_Linear8);stroke:#2f292b;stroke-width:8px;"/><path d="M301.349,642.345l174.897,0.192l-87.615,151.369l-87.282,-151.561Z" style="fill:url(#_Linear9);stroke:#2f292b;stroke-width:8px;"/><path d="M213.734,793.714l87.615,-151.369l87.282,151.561l-174.897,-0.192Z" style="fill:url(#_Linear10);stroke:#2f292b;stroke-width:8px;"/><path d="M126.452,642.152l87.615,-151.369l87.282,151.562l-174.897,-0.193Z" style="fill:url(#_Linear11);stroke:#2f292b;stroke-width:8px;"/><path d="M801.933,642.537l151.615,-87.189l-0.107,174.564l-151.508,-87.375Z" style="fill:url(#_Linear12);stroke:#2f292b;stroke-width:8px;"/><path d="M802.232,467.64l151.316,87.708l-151.615,87.189l0.299,-174.897Z" style="fill:url(#_Linear13);stroke:#2f292b;stroke-width:8px;"/><path d="M650.617,554.829l151.316,87.708l-151.615,87.189l0.299,-174.897Z" style="fill:url(#_Linear14);stroke:#2f292b;stroke-width:8px;"/><path d="M801.933,642.537l151.315,87.708l-151.615,87.189l0.3,-174.897Z" style="fill:url(#_Linear15);stroke:#2f292b;stroke-width:8px;"/><path d="M650.318,729.726l151.615,-87.189l-0.3,174.897l-151.315,-87.708Z" style="fill:url(#_Linear16);stroke:#2f292b;stroke-width:8px;"/><path d="M639.035,548.115l162.598,-149.975l0.3,244.397l-162.898,-94.422Z" style="fill:url(#_Linear17);stroke:#2f292b;stroke-width:8px;"/></g></g></g><defs><linearGradient id="_Linear2" x1="0" y1="0" x2="1" y2="0" gradientUnits="userSpaceOnUse" gradientTransform="matrix(653.951,-1080,1080,653.951,233.64,1080)"><stop offset="0" style="stop-color:#f1a000;stop-opacity:1"/><stop offset="1" style="stop-color:#e04a7f;stop-opacity:1"/></linearGradient><linearGradient id="_Linear3" x1="0" y1="0" x2="1" y2="0" gradientUnits="userSpaceOnUse" gradientTransform="matrix(404.369,-506.293,345.087,275.616,321.604,823.879)"><stop offset="0" style="stop-color:#f1a000;stop-opacity:1"/><stop offset="0.57" style="stop-color:#e56458;stop-opacity:1"/><stop offset="1" style="stop-color:#e04a7f;stop-opacity:1"/></linearGradient><linearGradient id="_Linear4" x1="0" y1="0" x2="1" y2="0" gradientUnits="userSpaceOnUse" gradientTransform="matrix(404.369,-506.293,345.087,275.616,321.604,823.879)"><stop offset="0" style="stop-color:#f1a000;stop-opacity:1"/><stop offset="0.57" style="stop-color:#e56458;stop-opacity:1"/><stop offset="1" style="stop-color:#e04a7f;stop-opacity:1"/></linearGradient><linearGradient id="_Linear5" x1="0" y1="0" x2="1" y2="0" gradientUnits="userSpaceOnUse" gradientTransform="matrix(404.369,-506.293,345.087,275.616,321.604,823.879)"><stop offset="0" style="stop-color:#f1a000;stop-opacity:1"/><stop offset="0.57" style="stop-color:#e56458;stop-opacity:1"/><stop offset="1" style="stop-color:#e04a7f;stop-opacity:1"/></linearGradient><linearGradient id="_Linear6" x1="0" y1="0" x2="1" y2="0" gradientUnits="userSpaceOnUse" gradientTransform="matrix(404.369,-506.293,345.087,275.616,321.604,823.879)"><stop offset="0" style="stop-color:#f1a000;stop-opacity:1"/><stop offset="0.57" style="stop-color:#e56458;stop-opacity:1"/><stop offset="1" style="stop-color:#e04a7f;stop-opacity:1"/></linearGradient><linearGradient id="_Linear7" x1="0" y1="0" x2="1" y2="0" gradientUnits="userSpaceOnUse" gradientTransform="matrix(404.369,-506.293,345.087,275.616,321.604,823.879)"><stop offset="0" style="stop-color:#f1a000;stop-opacity:1"/><stop offset="0.57" style="stop-color:#e56458;stop-opacity:1"/><stop offset="1" style="stop-color:#e04a7f;stop-opacity:1"/></linearGradient><linearGradient id="_Linear8" x1="0" y1="0" x2="1" y2="0" gradientUnits="userSpaceOnUse" gradientTransform="matrix(404.369,-506.293,345.087,275.616,321.604,823.879)"><stop offset="0" style="stop-color:#f1a000;stop-opacity:1"/><stop offset="0.57" style="stop-color:#e56458;stop-opacity:1"/><stop offset="1" style="stop-color:#e04a7f;stop-opacity:1"/></linearGradient><linearGradient id="_Linear9" x1="0" y1="0" x2="1" y2="0" gradientUnits="userSpaceOnUse" gradientTransform="matrix(404.369,-506.293,345.087,275.616,321.604,823.879)"><stop offset="0" style="stop-color:#f1a000;stop-opacity:1"/><stop offset="0.57" style="stop-color:#e56458;stop-opacity:1"/><stop offset="1" style="stop-color:#e04a7f;stop-opacity:1"/></linearGradient><linearGradient id="_Linear10" x1="0" y1="0" x2="1" y2="0" gradientUnits="userSpaceOnUse" gradientTransform="matrix(404.369,-506.293,345.087,275.616,321.604,823.879)"><stop offset="0" style="stop-color:#f1a000;stop-opacity:1"/><stop offset="0.57" style="stop-color:#e56458;stop-opacity:1"/><stop offset="1" style="stop-color:#e04a7f;stop-opacity:1"/></linearGradient><linearGradient id="_Linear11" x1="0" y1="0" x2="1" y2="0" gradientUnits="userSpaceOnUse" gradientTransform="matrix(404.369,-506.293,345.087,275.616,321.604,823.879)"><stop offset="0" style="stop-color:#f1a000;stop-opacity:1"/><stop offset="0.57" style="stop-color:#e56458;stop-opacity:1"/><stop offset="1" style="stop-color:#e04a7f;stop-opacity:1"/></linearGradient><linearGradient id="_Linear12" x1="0" y1="0" x2="1" y2="0" gradientUnits="userSpaceOnUse" gradientTransform="matrix(404.369,-506.293,345.087,275.616,321.604,823.879)"><stop offset="0" style="stop-color:#f1a000;stop-opacity:1"/><stop offset="0.57" style="stop-color:#e56458;stop-opacity:1"/><stop offset="1" style="stop-color:#e04a7f;stop-opacity:1"/></linearGradient><linearGradient id="_Linear13" x1="0" y1="0" x2="1" y2="0" gradientUnits="userSpaceOnUse" gradientTransform="matrix(404.369,-506.293,345.087,275.616,321.604,823.879)"><stop offset="0" style="stop-color:#f1a000;stop-opacity:1"/><stop offset="0.57" style="stop-color:#e56458;stop-opacity:1"/><stop offset="1" style="stop-color:#e04a7f;stop-opacity:1"/></linearGradient><linearGradient id="_Linear14" x1="0" y1="0" x2="1" y2="0" gradientUnits="userSpaceOnUse" gradientTransform="matrix(404.369,-506.293,345.087,275.616,321.604,823.879)"><stop offset="0" style="stop-color:#f1a000;stop-opacity:1"/><stop offset="0.57" style="stop-color:#e56458;stop-opacity:1"/><stop offset="1" style="stop-color:#e04a7f;stop-opacity:1"/></linearGradient><linearGradient id="_Linear15" x1="0" y1="0" x2="1" y2="0" gradientUnits="userSpaceOnUse" gradientTransform="matrix(404.369,-506.293,345.087,275.616,321.604,823.879)"><stop offset="0" style="stop-color:#f1a000;stop-opacity:1"/><stop offset="0.57" style="stop-color:#e56458;stop-opacity:1"/><stop offset="1" style="stop-color:#e04a7f;stop-opacity:1"/></linearGradient><linearGradient id="_Linear16" x1="0" y1="0" x2="1" y2="0" gradientUnits="userSpaceOnUse" gradientTransform="matrix(404.369,-506.293,345.087,275.616,321.604,823.879)"><stop offset="0" style="stop-color:#f1a000;stop-opacity:1"/><stop offset="0.57" style="stop-color:#e56458;stop-opacity:1"/><stop offset="1" style="stop-color:#e04a7f;stop-opacity:1"/></linearGradient><linearGradient id="_Linear17" x1="0" y1="0" x2="1" y2="0" gradientUnits="userSpaceOnUse" gradientTransform="matrix(404.369,-506.293,345.087,275.616,321.604,823.879)"><stop offset="0" style="stop-color:#f1a000;stop-opacity:1"/><stop offset="0.57" style="stop-color:#e56458;stop-opacity:1"/><stop offset="1" style="stop-color:#e04a7f;stop-opacity:1"/></linearGradient></defs></svg>