<?xml version="1.0" encoding="UTF-8" standalone="no"?><!DOCTYPE svg PUBLIC "-//W3C//DTD SVG 1.1//EN" "http://www.w3.org/Graphics/SVG/1.1/DTD/svg11.dtd"><svg width="100%" height="100%" viewBox="0 0 1024 1024" version="1.1" xmlns="http://www.w3.org/2000/svg" xmlns:xlink="http://www.w3.org/1999/xlink" xml:space="preserve" xmlns:serif="http://www.serif.com/" style="fill-rule:evenodd;clip-rule:evenodd;stroke-linejoin:round;stroke-miterlimit:2;"><rect id="Rad-Combi-W" serif:id="Rad Combi W" x="0" y="0" width="1024" height="1024" style="fill:none;"/><clipPath id="_clip1"><rect x="0" y="0" width="1024" height="1024"/></clipPath><g clip-path="url(#_clip1)"><rect x="20" y="20" width="984" height="984" style="fill:#231f20;"/><path d="M1024,20l0,-20l-1024,0l-0,1024l1024,-0l0,-1004Zm-20,0l-984,0l0,984l984,-0l0,-984Z" style="fill:#fff;"/><clipPath id="_clip2"><rect id="xrscreen_logo-w.svg" x="20" y="793.019" width="984" height="210.981"/></clipPath><g clip-path="url(#_clip2)"><g id="g4"><path id="path2" d="M1003.88,1003.85l0,-210.83l-983.878,-0l0,210.83l983.878,0Zm-210.83,-17.569l-755.477,-0l-0,-175.693l755.477,0l-0,175.693Zm140.553,-52.708l-70.277,-0l0,-70.277l70.277,0l-0,70.277Zm-833.929,-35.882l-31.795,50.948l29.751,0l16.176,-32.168l0.372,0l16.176,32.168l31.983,0l-31.611,-52.807l28.45,-47.415l-27.333,-0l-15.249,29.936l-0.37,0l-14.876,-29.936l-30.308,-0l28.634,49.274Zm115.839,-51.319c-17.85,-0 -31.424,2.975 -40.721,7.437l0,94.83l29.007,0l-0,-82.372c1.859,-0.929 5.206,-1.487 8.739,-1.487c3.533,-0 7.438,0.744 10.599,2.417l5.206,-20.082c-2.975,-0.372 -8.367,-0.743 -12.83,-0.743m27.332,86.834l-4.648,10.413c6.322,4.276 17.107,6.88 26.961,6.88c20.454,-0 34.214,-13.388 34.214,-29.566c-0,-34.212 -42.767,-24.915 -42.767,-47.786c0,-8.74 5.392,-15.805 16.921,-15.805c6.508,0 13.388,2.416 18.594,5.764l4.277,-9.669c-6.694,-4.462 -15.434,-6.881 -25.103,-6.881c-18.408,0 -30.866,11.902 -30.866,27.335c0,33.096 42.395,23.243 42.395,47.786c-0,9.856 -7.624,17.293 -19.338,17.293c-7.066,0 -14.689,-2.045 -20.64,-5.764m74.749,-34.771c-0,30.68 14.689,52.064 38.862,52.064c9.297,-0 17.106,-2.419 22.498,-6.508l-4.09,-10.227c-3.905,2.975 -9.669,4.834 -15.619,4.834c-15.805,0 -24.916,-17.85 -24.916,-40.535c-0,-23.056 8.925,-40.349 24.916,-40.349c5.95,0 11.9,2.044 15.805,5.02l3.904,-9.669c-5.392,-4.09 -13.201,-6.509 -22.498,-6.509c-23.987,0 -38.862,21.199 -38.862,51.879m115.282,-51.879c-14.317,0 -25.66,2.791 -34.213,7.067l0,95.016l16.363,0l-0,-88.322c3.533,-1.859 8.181,-2.603 12.644,-2.603c3.719,0 7.252,0.558 10.227,1.673l3.719,-12.272c-0.93,-0.187 -5.021,-0.559 -8.74,-0.559m19.33,51.693c-0,32.54 16.363,52.25 44.998,52.25c11.714,-0 23.242,-2.975 30.308,-7.066l-4.277,-10.599c-5.578,3.347 -15.247,5.95 -24.358,5.95c-21.291,0 -31.393,-16.104 -31.393,-38.505l63.561,0l0,-6.492c0,-31.61 -14.317,-47.229 -38.304,-47.229c-25.474,-0 -40.535,20.267 -40.535,51.691m15.303,-9.653c1.496,-19.169 9.919,-31.812 24.86,-31.812c15.619,0 22.499,11.529 22.871,31.796c0,0 -47.732,0.023 -47.731,0.016m81.949,9.653c0,32.54 16.363,52.25 44.998,52.25c11.714,-0 23.243,-2.975 30.309,-7.066l-4.277,-10.599c-5.578,3.347 -15.247,5.95 -24.358,5.95c-21.291,0 -31.393,-16.104 -31.393,-38.505l63.56,0l0,-6.492c0,-31.61 -14.317,-47.229 -38.303,-47.229c-25.474,-0 -40.536,20.267 -40.536,51.691m15.303,-9.653c1.496,-19.169 9.919,-31.812 24.861,-31.812c15.619,0 22.499,11.529 22.87,31.796c0,0 -47.732,0.023 -47.731,0.016m120.06,-42.04c-12.458,0 -24.73,2.791 -34.027,7.067l0,95.016l16.363,0l0,-88.322c5.206,-2.231 10.785,-3.347 17.664,-3.347c16.363,0 22.499,7.437 22.499,22.499l0,69.17l16.363,0l0,-69.17c0,-21.197 -11.9,-32.913 -38.862,-32.913" style="fill:#231f20;fill-rule:nonzero;"/></g><path id="path28" d="M863.429,932.954l-0,-68.889l69.82,-0l-0,68.889l-69.82,0Z" style="fill:#fff;stroke:#fff;stroke-width:0.93px;"/><path id="path30" d="M37.688,986.017l-0,-175.016l754.989,0l0,175.016l-754.989,0Zm240.32,-37.204c16.713,-5.162 25.112,-20.698 20.362,-37.663c-2.212,-7.902 -7.672,-12.699 -22.912,-20.129c-15.653,-7.632 -18.069,-10.065 -18.069,-18.191c-0,-13.021 13.727,-18.791 28.667,-12.049c3.36,1.516 6.166,2.284 6.578,1.8c0.395,-0.464 1.496,-2.642 2.446,-4.84c1.491,-3.451 1.547,-4.173 0.404,-5.291c-5.254,-5.141 -25.076,-7.773 -35.278,-4.684c-12.429,3.763 -19.933,13.492 -20.002,25.935c-0.077,13.75 4.768,19.728 23.201,28.624c13.051,6.299 17.579,10.302 18.619,16.462c0.912,5.396 -1.026,10.855 -5.19,14.616c-7.379,6.667 -16.926,6.684 -32.653,0.058c-1.194,-0.503 -2.003,0.195 -3.371,2.907c-3.502,6.939 -3.463,7.469 0.713,9.599c9.392,4.791 25.995,6.086 36.485,2.846l0,0Zm92.159,-0.044c3.254,-1.03 6.694,-2.47 7.644,-3.2c1.675,-1.287 1.662,-1.497 -0.409,-6.839l-2.138,-5.511l-4.997,2.288c-10.787,4.938 -21.204,2.121 -27.836,-7.527c-6.01,-8.743 -8.829,-24.105 -7.033,-38.325c1.912,-15.136 6.87,-24.695 15.084,-29.082c6.269,-3.347 15.708,-2.449 24.315,2.316c0.316,0.175 1.524,-2.02 2.684,-4.878c2.056,-5.067 2.065,-5.23 0.355,-6.548c-0.964,-0.743 -4.607,-2.24 -8.095,-3.327c-8.985,-2.799 -21.243,-2.229 -28.672,1.334c-6.682,3.206 -14.082,11.003 -17.597,18.543c-4.658,9.99 -5.946,16.596 -5.946,30.496c0,8.979 0.462,14.296 1.615,18.619c4.441,16.646 13.952,28.388 26.058,32.174c6.087,1.903 18.081,1.647 24.968,-0.533l-0,-0Zm142.584,0.498c3.485,-0.739 8.378,-2.302 10.873,-3.475l4.536,-2.132l-2.309,-5.691l-2.309,-5.691l-5.356,2.163c-6.798,2.746 -17.713,4.459 -23.287,3.655c-10.37,-1.496 -18.177,-7.296 -22.578,-16.772c-2.273,-4.896 -4.512,-14.44 -4.533,-19.324c-0.007,-1.519 2.118,-1.629 31.644,-1.629l31.652,0l0,-9.16c0,-21.188 -7.62,-35.833 -21.907,-42.101c-6.526,-2.863 -20.417,-3.551 -27.882,-1.381c-13.319,3.872 -22.055,13.378 -26.989,29.369c-2.356,7.637 -2.945,28.317 -1.06,37.237c3.824,18.094 14.772,30.616 30.458,34.834c6.519,1.753 21.006,1.802 29.047,0.098l0,-0Zm103.709,-1.8c4.204,-1.358 7.909,-2.898 8.233,-3.422c0.436,-0.705 -2.469,-9.786 -3.768,-11.783c-0.081,-0.124 -1.932,0.636 -4.112,1.689c-9.682,4.678 -24.884,5.517 -33.245,1.834c-10.458,-4.607 -17.995,-17.562 -18.028,-30.992l-0.011,-4.422l63.588,0l-0.563,-10.473c-1.156,-21.47 -7.864,-34.032 -21.599,-40.447c-5.145,-2.403 -6.467,-2.609 -16.777,-2.609c-10.74,0 -11.44,0.122 -17.321,3.018c-15.379,7.573 -23.413,23.879 -23.512,47.719c-0.055,13.422 1.2,20.187 5.44,29.324c5.26,11.335 14.2,19.113 25.639,22.306c8.175,2.282 26.285,1.406 36.036,-1.742l0,-0Zm-510.591,-14.047c4.215,-8.449 7.885,-15.361 8.156,-15.361c0.27,0 3.94,6.912 8.155,15.361l7.663,15.36l16.395,0c12.737,0 16.293,-0.26 15.941,-1.164c-0.25,-0.64 -7.228,-12.432 -15.507,-26.205c-8.729,-14.522 -14.832,-25.616 -14.527,-26.409c0.288,-0.752 6.447,-11.267 13.686,-23.367c7.238,-12.1 13.332,-22.314 13.54,-22.698c0.209,-0.384 -6.04,-0.698 -13.886,-0.698l-14.266,-0l-7.312,14.66l-7.312,14.661l-7.342,-14.661l-7.342,-14.66l-31.792,-0l1.845,3.025c1.014,1.664 7.517,12.784 14.451,24.711l12.606,21.685l-14.062,22.535c-7.734,12.393 -14.873,23.895 -15.864,25.559l-1.801,3.026l30.912,0l7.663,-15.36Zm98.68,-25.799l0.242,-41.159l3.562,-0.843c3.34,-0.789 9.905,-0.011 13.765,1.632c1.252,0.532 1.911,-0.994 3.957,-9.158c1.35,-5.389 2.455,-10.229 2.455,-10.757c-0,-0.617 -5.066,-0.955 -14.197,-0.947c-14.709,0.013 -26.684,1.749 -35.633,5.167l-4.165,1.591l0,95.633l29.771,0l0.243,-41.159Zm211.099,41.159l0,-88.295l3.424,-1.13c2.21,-0.729 6.291,-0.944 11.504,-0.606l8.079,0.523l1.529,-5.503c0.842,-3.026 1.53,-5.927 1.53,-6.447c0,-1.493 -18.736,-1.129 -26.717,0.519c-3.9,0.806 -9.328,2.302 -12.063,3.326l-4.974,1.86l0,95.753l17.688,0Zm252.284,-44.128l-0,-44.129l3.025,-1.092c4.748,-1.714 16.755,-2.28 21.741,-1.025c5.821,1.466 9.258,4.02 11.794,8.763c2.035,3.805 2.079,4.605 2.354,42.744l0.28,38.867l16.662,0l0,-38.465c0,-42.246 -0.219,-44.28 -5.572,-51.669c-3.286,-4.537 -8.121,-7.791 -15.041,-10.123c-3.94,-1.327 -7.921,-1.677 -18.952,-1.665c-14.109,0.015 -19.788,0.922 -30.022,4.792l-3.957,1.497l0,95.633l17.688,0l-0,-44.128l-0,-0Z" style="fill:#fff;stroke:#fff;stroke-width:0.93px;"/><path id="path32" d="M565.917,883.536c1.461,-11.015 7.533,-20.876 14.92,-24.232c2.203,-1 5.909,-1.715 8.896,-1.715c12.675,0 20.095,8.545 21.993,25.327l0.606,5.353l-47.043,0l0.628,-4.733Z" style="fill:#fff;stroke:#fff;stroke-width:0.93px;"/><path id="path34" d="M468.343,885.244c3.145,-18.447 11.147,-27.696 23.96,-27.696c6.823,0 12.662,2.559 16.087,7.049c3.071,4.025 5.937,13.248 5.937,19.1l0,4.572l-46.5,0l0.516,-3.025Z" style="fill:#fff;stroke:#fff;stroke-width:0.93px;"/></g><g><path d="M308.259,479.328l99.603,-172.08l95.375,172.239l-194.978,-0.159Z" style="fill:#fff;stroke:#231f20;stroke-width:8px;stroke-linecap:round;stroke-miterlimit:1.5;"/><path d="M503.237,479.487l-112.132,-202.501l331.679,-0l-219.547,202.501Z" style="fill:#fff;stroke:#231f20;stroke-width:8px;stroke-linecap:round;stroke-miterlimit:1.5;"/><path d="M391.105,276.986l-0,-41.683l94.893,41.683l-94.893,-0Z" style="fill:#fff;stroke:#231f20;stroke-width:8px;stroke-linecap:round;stroke-miterlimit:1.5;"/><path d="M744.43,235.303l-45.407,0l23.761,41.683l21.646,-41.683Z" style="fill:#fff;stroke:#231f20;stroke-width:8px;stroke-linecap:round;stroke-miterlimit:1.5;"/><path d="M235.939,353.747l144.916,0.16l-72.596,125.421l-72.32,-125.581Z" style="fill:#fff;stroke:#231f20;stroke-width:8px;stroke-linecap:round;stroke-miterlimit:1.5;"/><path d="M163.344,479.168l144.915,0.16l-72.595,125.421l-72.32,-125.581Z" style="fill:#fff;stroke:#231f20;stroke-width:8px;stroke-linecap:round;stroke-miterlimit:1.5;"/><path d="M308.259,479.328l144.916,0.159l-72.596,125.421l-72.32,-125.58Z" style="fill:#fff;stroke:#231f20;stroke-width:8px;stroke-linecap:round;stroke-miterlimit:1.5;"/><path d="M235.664,604.749l72.595,-125.421l72.32,125.58l-144.915,-0.159Z" style="fill:#fff;stroke:#231f20;stroke-width:8px;stroke-linecap:round;stroke-miterlimit:1.5;"/><path d="M163.344,479.168l72.595,-125.421l72.32,125.581l-144.915,-0.16Z" style="fill:#fff;stroke:#231f20;stroke-width:8px;stroke-linecap:round;stroke-miterlimit:1.5;"/><path d="M723.032,479.487l125.624,-72.243l-0.088,144.64l-125.536,-72.397Z" style="fill:#fff;stroke:#231f20;stroke-width:8px;stroke-linecap:round;stroke-miterlimit:1.5;"/><path d="M723.28,334.571l125.376,72.673l-125.624,72.243l0.248,-144.916Z" style="fill:#fff;stroke:#231f20;stroke-width:8px;stroke-linecap:round;stroke-miterlimit:1.5;"/><path d="M597.655,406.814l125.377,72.673l-125.625,72.243l0.248,-144.916Z" style="fill:#fff;stroke:#231f20;stroke-width:8px;stroke-linecap:round;stroke-miterlimit:1.5;"/><path d="M723.032,479.487l125.376,72.673l-125.624,72.243l0.248,-144.916Z" style="fill:#fff;stroke:#231f20;stroke-width:8px;stroke-linecap:round;stroke-miterlimit:1.5;"/><path d="M597.407,551.73l125.625,-72.243l-0.248,144.916l-125.377,-72.673Z" style="fill:#fff;stroke:#231f20;stroke-width:8px;stroke-linecap:round;stroke-miterlimit:1.5;"/><path d="M588.058,401.251l134.726,-124.265l0.248,202.501l-134.974,-78.236Z" style="fill:#fff;stroke:#231f20;stroke-width:8px;stroke-linecap:round;stroke-miterlimit:1.5;"/></g></g></svg>