<?xml version="1.0" encoding="UTF-8" standalone="no"?><!DOCTYPE svg PUBLIC "-//W3C//DTD SVG 1.1//EN" "http://www.w3.org/Graphics/SVG/1.1/DTD/svg11.dtd"><svg width="100%" height="100%" viewBox="0 0 1080 1080" version="1.1" xmlns="http://www.w3.org/2000/svg" xmlns:xlink="http://www.w3.org/1999/xlink" xml:space="preserve" xmlns:serif="http://www.serif.com/" style="fill-rule:evenodd;clip-rule:evenodd;stroke-linecap:round;stroke-linejoin:round;stroke-miterlimit:1.5;"><rect id="Rad-fahren" serif:id="Rad fahren" x="-0" y="0" width="1080" height="1080" style="fill:none;"/><g><rect x="0" y="0" width="1080" height="1080" style="fill:#231f20;"/><path d="M1080,0l-1080,0l0,1080l1080,-0l-0,-1080Zm-20,20l-0,1040c-0,0 -1040,-0 -1040,-0c0,-0 0,-894.157 0,-1040c145.843,0 1040,0 1040,0l-0,0Z" style="fill:#fff;"/><g><path d="M297.349,642.345l120.209,-207.682l115.107,207.874l-235.316,-0.192Z" style="fill:#fff;stroke:#231f20;stroke-width:8px;"/><path d="M532.665,642.537l-135.331,-244.397l400.299,0l-264.968,244.397Z" style="fill:#fff;stroke:#231f20;stroke-width:8px;"/><path d="M397.334,398.14l0,-50.306l114.526,50.306l-114.526,0Z" style="fill:#fff;stroke:#231f20;stroke-width:8px;"/><path d="M823.758,347.834l-54.801,0l28.676,50.306l26.125,-50.306Z" style="fill:#fff;stroke:#231f20;stroke-width:8px;"/><path d="M210.067,490.783l174.897,0.192l-87.615,151.37l-87.282,-151.562Z" style="fill:#fff;stroke:#231f20;stroke-width:8px;"/><path d="M122.452,642.152l174.897,0.193l-87.615,151.369l-87.282,-151.562Z" style="fill:#fff;stroke:#231f20;stroke-width:8px;"/><path d="M297.349,642.345l174.897,0.192l-87.615,151.369l-87.282,-151.561Z" style="fill:#fff;stroke:#231f20;stroke-width:8px;"/><path d="M209.734,793.714l87.615,-151.369l87.282,151.561l-174.897,-0.192Z" style="fill:#fff;stroke:#231f20;stroke-width:8px;"/><path d="M122.452,642.152l87.615,-151.369l87.282,151.562l-174.897,-0.193Z" style="fill:#fff;stroke:#231f20;stroke-width:8px;"/><path d="M797.933,642.537l151.615,-87.189l-0.107,174.564l-151.508,-87.375Z" style="fill:#fff;stroke:#231f20;stroke-width:8px;"/><path d="M798.232,467.64l151.316,87.708l-151.615,87.189l0.299,-174.897Z" style="fill:#fff;stroke:#231f20;stroke-width:8px;"/><path d="M646.617,554.829l151.316,87.708l-151.615,87.189l0.299,-174.897Z" style="fill:#fff;stroke:#231f20;stroke-width:8px;"/><path d="M797.933,642.537l151.315,87.708l-151.615,87.189l0.3,-174.897Z" style="fill:#fff;stroke:#231f20;stroke-width:8px;"/><path d="M646.318,729.726l151.615,-87.189l-0.3,174.897l-151.315,-87.708Z" style="fill:#fff;stroke:#231f20;stroke-width:8px;"/><path d="M635.035,548.115l162.598,-149.975l0.3,244.397l-162.898,-94.422Z" style="fill:#fff;stroke:#231f20;stroke-width:8px;"/></g></g></svg>