<?xml version="1.0" encoding="UTF-8" standalone="no"?><!DOCTYPE svg PUBLIC "-//W3C//DTD SVG 1.1//EN" "http://www.w3.org/Graphics/SVG/1.1/DTD/svg11.dtd"><svg width="100%" height="100%" viewBox="0 0 1024 1024" version="1.1" xmlns="http://www.w3.org/2000/svg" xmlns:xlink="http://www.w3.org/1999/xlink" xml:space="preserve" xmlns:serif="http://www.serif.com/" style="fill-rule:evenodd;clip-rule:evenodd;stroke-linecap:round;stroke-linejoin:round;stroke-miterlimit:1.5;"><rect id="Rad-Combi-C" serif:id="Rad Combi C" x="0" y="-0" width="1024" height="1024" style="fill:none;"/><clipPath id="_clip1"><rect x="0" y="-0" width="1024" height="1024"/></clipPath><g clip-path="url(#_clip1)"><rect x="0" y="0" width="1024" height="1024" style="fill:url(#_Linear2);"/><rect x="20" y="20" width="984" height="781.056" style="fill:#231f20;"/><clipPath id="_clip3"><rect id="xrscreen_logo.svg" x="20" y="793.019" width="984" height="210.981"/></clipPath><g clip-path="url(#_clip3)"><g><path d="M1003.88,1003.85l0,-210.83l-983.878,-0l0,210.83l983.878,0Zm-210.83,-17.569l-755.477,-0l-0,-175.693l755.477,0l-0,175.693Zm140.553,-52.708l-70.277,-0l0,-70.277l70.277,0l-0,70.277Zm-833.929,-35.882l-31.795,50.948l29.751,0l16.176,-32.168l0.372,0l16.176,32.168l31.983,0l-31.611,-52.807l28.45,-47.415l-27.333,-0l-15.249,29.936l-0.37,0l-14.876,-29.936l-30.308,-0l28.634,49.274Zm115.839,-51.319c-17.85,-0 -31.424,2.975 -40.721,7.437l0,94.83l29.007,0l-0,-82.372c1.859,-0.929 5.206,-1.487 8.739,-1.487c3.533,-0 7.438,0.744 10.599,2.417l5.206,-20.082c-2.975,-0.372 -8.367,-0.743 -12.83,-0.743m27.332,86.834l-4.648,10.413c6.322,4.276 17.107,6.88 26.961,6.88c20.454,-0 34.214,-13.388 34.214,-29.566c-0,-34.212 -42.767,-24.915 -42.767,-47.786c0,-8.74 5.392,-15.805 16.921,-15.805c6.508,0 13.388,2.416 18.594,5.764l4.277,-9.669c-6.694,-4.462 -15.434,-6.881 -25.103,-6.881c-18.408,0 -30.866,11.902 -30.866,27.335c0,33.096 42.395,23.243 42.395,47.786c-0,9.856 -7.624,17.293 -19.338,17.293c-7.066,0 -14.689,-2.045 -20.64,-5.764m74.749,-34.771c-0,30.68 14.689,52.064 38.862,52.064c9.297,-0 17.106,-2.419 22.498,-6.508l-4.09,-10.227c-3.905,2.975 -9.669,4.834 -15.619,4.834c-15.805,0 -24.916,-17.85 -24.916,-40.535c-0,-23.056 8.925,-40.349 24.916,-40.349c5.95,0 11.9,2.044 15.805,5.02l3.904,-9.669c-5.392,-4.09 -13.201,-6.509 -22.498,-6.509c-23.987,0 -38.862,21.199 -38.862,51.879m115.282,-51.879c-14.317,0 -25.66,2.791 -34.213,7.067l0,95.016l16.363,0l-0,-88.322c3.533,-1.859 8.181,-2.603 12.644,-2.603c3.719,0 7.252,0.558 10.227,1.673l3.719,-12.272c-0.93,-0.187 -5.021,-0.559 -8.74,-0.559m19.33,51.693c-0,32.54 16.363,52.25 44.998,52.25c11.714,-0 23.242,-2.975 30.308,-7.066l-4.277,-10.599c-5.578,3.347 -15.247,5.95 -24.358,5.95c-21.291,0 -31.393,-16.104 -31.393,-38.505l63.561,0l0,-6.492c0,-31.61 -14.317,-47.229 -38.304,-47.229c-25.474,-0 -40.535,20.267 -40.535,51.691m15.303,-9.653c1.496,-19.169 9.919,-31.812 24.86,-31.812c15.619,0 22.499,11.529 22.871,31.796c0,0 -47.732,0.023 -47.731,0.016m81.949,9.653c0,32.54 16.363,52.25 44.998,52.25c11.714,-0 23.243,-2.975 30.309,-7.066l-4.277,-10.599c-5.578,3.347 -15.247,5.95 -24.358,5.95c-21.291,0 -31.393,-16.104 -31.393,-38.505l63.56,0l0,-6.492c0,-31.61 -14.317,-47.229 -38.303,-47.229c-25.474,-0 -40.536,20.267 -40.536,51.691m15.303,-9.653c1.496,-19.169 9.919,-31.812 24.861,-31.812c15.619,0 22.499,11.529 22.87,31.796c0,0 -47.732,0.023 -47.731,0.016m120.06,-42.04c-12.458,0 -24.73,2.791 -34.027,7.067l0,95.016l16.363,0l0,-88.322c5.206,-2.231 10.785,-3.347 17.664,-3.347c16.363,0 22.499,7.437 22.499,22.499l0,69.17l16.363,0l0,-69.17c0,-21.197 -11.9,-32.913 -38.862,-32.913" style="fill:#231f20;fill-rule:nonzero;"/></g></g><g><path d="M308.26,474.544l99.603,-172.08l95.376,172.24l-194.979,-0.16Z" style="fill:url(#_Linear4);stroke:#231f20;stroke-width:8px;"/><path d="M503.239,474.704l-112.133,-202.503l331.681,0l-219.548,202.503Z" style="fill:url(#_Linear5);stroke:#231f20;stroke-width:8px;"/><path d="M391.106,272.201l0,-41.682l94.894,41.682l-94.894,0Z" style="fill:url(#_Linear6);stroke:#231f20;stroke-width:8px;"/><path d="M744.433,230.519l-45.407,-0l23.761,41.682l21.646,-41.682Z" style="fill:url(#_Linear7);stroke:#231f20;stroke-width:8px;"/><path d="M235.94,348.963l144.916,0.16l-72.596,125.421l-72.32,-125.581Z" style="fill:url(#_Linear8);stroke:#231f20;stroke-width:8px;"/><path d="M163.344,474.385l144.916,0.159l-72.596,125.422l-72.32,-125.581Z" style="fill:url(#_Linear9);stroke:#231f20;stroke-width:8px;"/><path d="M308.26,474.544l144.917,0.16l-72.596,125.422l-72.321,-125.582Z" style="fill:url(#_Linear10);stroke:#231f20;stroke-width:8px;"/><path d="M235.664,599.966l72.596,-125.422l72.321,125.582l-144.917,-0.16Z" style="fill:url(#_Linear11);stroke:#231f20;stroke-width:8px;"/><path d="M163.344,474.385l72.596,-125.422l72.32,125.581l-144.916,-0.159Z" style="fill:url(#_Linear12);stroke:#231f20;stroke-width:8px;"/><path d="M723.035,474.704l125.625,-72.244l-0.088,144.641l-125.537,-72.397Z" style="fill:url(#_Linear13);stroke:#231f20;stroke-width:8px;"/><path d="M723.283,329.787l125.377,72.673l-125.625,72.244l0.248,-144.917Z" style="fill:url(#_Linear14);stroke:#231f20;stroke-width:8px;"/><path d="M597.658,402.031l125.377,72.673l-125.626,72.243l0.249,-144.916Z" style="fill:url(#_Linear15);stroke:#231f20;stroke-width:8px;"/><path d="M723.035,474.704l125.377,72.673l-125.625,72.243l0.248,-144.916Z" style="fill:url(#_Linear16);stroke:#231f20;stroke-width:8px;"/><path d="M597.409,546.947l125.626,-72.243l-0.248,144.916l-125.378,-72.673Z" style="fill:url(#_Linear17);stroke:#231f20;stroke-width:8px;"/><path d="M588.06,396.468l134.727,-124.267l0.248,202.503l-134.975,-78.236Z" style="fill:url(#_Linear18);stroke:#231f20;stroke-width:8px;"/></g></g><defs><linearGradient id="_Linear2" x1="0" y1="0" x2="1" y2="0" gradientUnits="userSpaceOnUse" gradientTransform="matrix(620.043,-1024,1024,620.043,221.525,1024)"><stop offset="0" style="stop-color:#f1a000;stop-opacity:1"/><stop offset="1" style="stop-color:#e04a7f;stop-opacity:1"/></linearGradient><linearGradient id="_Linear4" x1="0" y1="0" x2="1" y2="0" gradientUnits="userSpaceOnUse" gradientTransform="matrix(335.053,-419.505,285.933,228.371,325.043,624.96)"><stop offset="0" style="stop-color:#f1a000;stop-opacity:1"/><stop offset="0.57" style="stop-color:#e56458;stop-opacity:1"/><stop offset="1" style="stop-color:#e04a7f;stop-opacity:1"/></linearGradient><linearGradient id="_Linear5" x1="0" y1="0" x2="1" y2="0" gradientUnits="userSpaceOnUse" gradientTransform="matrix(335.053,-419.505,285.933,228.371,325.043,624.96)"><stop offset="0" style="stop-color:#f1a000;stop-opacity:1"/><stop offset="0.57" style="stop-color:#e56458;stop-opacity:1"/><stop offset="1" style="stop-color:#e04a7f;stop-opacity:1"/></linearGradient><linearGradient id="_Linear6" x1="0" y1="0" x2="1" y2="0" gradientUnits="userSpaceOnUse" gradientTransform="matrix(335.053,-419.505,285.933,228.371,325.043,624.96)"><stop offset="0" style="stop-color:#f1a000;stop-opacity:1"/><stop offset="0.57" style="stop-color:#e56458;stop-opacity:1"/><stop offset="1" style="stop-color:#e04a7f;stop-opacity:1"/></linearGradient><linearGradient id="_Linear7" x1="0" y1="0" x2="1" y2="0" gradientUnits="userSpaceOnUse" gradientTransform="matrix(335.053,-419.505,285.933,228.371,325.043,624.96)"><stop offset="0" style="stop-color:#f1a000;stop-opacity:1"/><stop offset="0.57" style="stop-color:#e56458;stop-opacity:1"/><stop offset="1" style="stop-color:#e04a7f;stop-opacity:1"/></linearGradient><linearGradient id="_Linear8" x1="0" y1="0" x2="1" y2="0" gradientUnits="userSpaceOnUse" gradientTransform="matrix(335.053,-419.505,285.933,228.371,325.043,624.96)"><stop offset="0" style="stop-color:#f1a000;stop-opacity:1"/><stop offset="0.57" style="stop-color:#e56458;stop-opacity:1"/><stop offset="1" style="stop-color:#e04a7f;stop-opacity:1"/></linearGradient><linearGradient id="_Linear9" x1="0" y1="0" x2="1" y2="0" gradientUnits="userSpaceOnUse" gradientTransform="matrix(335.053,-419.505,285.933,228.371,325.043,624.96)"><stop offset="0" style="stop-color:#f1a000;stop-opacity:1"/><stop offset="0.57" style="stop-color:#e56458;stop-opacity:1"/><stop offset="1" style="stop-color:#e04a7f;stop-opacity:1"/></linearGradient><linearGradient id="_Linear10" x1="0" y1="0" x2="1" y2="0" gradientUnits="userSpaceOnUse" gradientTransform="matrix(335.053,-419.505,285.933,228.371,325.043,624.96)"><stop offset="0" style="stop-color:#f1a000;stop-opacity:1"/><stop offset="0.57" style="stop-color:#e56458;stop-opacity:1"/><stop offset="1" style="stop-color:#e04a7f;stop-opacity:1"/></linearGradient><linearGradient id="_Linear11" x1="0" y1="0" x2="1" y2="0" gradientUnits="userSpaceOnUse" gradientTransform="matrix(335.053,-419.505,285.933,228.371,325.043,624.96)"><stop offset="0" style="stop-color:#f1a000;stop-opacity:1"/><stop offset="0.57" style="stop-color:#e56458;stop-opacity:1"/><stop offset="1" style="stop-color:#e04a7f;stop-opacity:1"/></linearGradient><linearGradient id="_Linear12" x1="0" y1="0" x2="1" y2="0" gradientUnits="userSpaceOnUse" gradientTransform="matrix(335.053,-419.505,285.933,228.371,325.043,624.96)"><stop offset="0" style="stop-color:#f1a000;stop-opacity:1"/><stop offset="0.57" style="stop-color:#e56458;stop-opacity:1"/><stop offset="1" style="stop-color:#e04a7f;stop-opacity:1"/></linearGradient><linearGradient id="_Linear13" x1="0" y1="0" x2="1" y2="0" gradientUnits="userSpaceOnUse" gradientTransform="matrix(335.053,-419.505,285.933,228.371,325.043,624.96)"><stop offset="0" style="stop-color:#f1a000;stop-opacity:1"/><stop offset="0.57" style="stop-color:#e56458;stop-opacity:1"/><stop offset="1" style="stop-color:#e04a7f;stop-opacity:1"/></linearGradient><linearGradient id="_Linear14" x1="0" y1="0" x2="1" y2="0" gradientUnits="userSpaceOnUse" gradientTransform="matrix(335.053,-419.505,285.933,228.371,325.043,624.96)"><stop offset="0" style="stop-color:#f1a000;stop-opacity:1"/><stop offset="0.57" style="stop-color:#e56458;stop-opacity:1"/><stop offset="1" style="stop-color:#e04a7f;stop-opacity:1"/></linearGradient><linearGradient id="_Linear15" x1="0" y1="0" x2="1" y2="0" gradientUnits="userSpaceOnUse" gradientTransform="matrix(335.053,-419.505,285.933,228.371,325.043,624.96)"><stop offset="0" style="stop-color:#f1a000;stop-opacity:1"/><stop offset="0.57" style="stop-color:#e56458;stop-opacity:1"/><stop offset="1" style="stop-color:#e04a7f;stop-opacity:1"/></linearGradient><linearGradient id="_Linear16" x1="0" y1="0" x2="1" y2="0" gradientUnits="userSpaceOnUse" gradientTransform="matrix(335.053,-419.505,285.933,228.371,325.043,624.96)"><stop offset="0" style="stop-color:#f1a000;stop-opacity:1"/><stop offset="0.57" style="stop-color:#e56458;stop-opacity:1"/><stop offset="1" style="stop-color:#e04a7f;stop-opacity:1"/></linearGradient><linearGradient id="_Linear17" x1="0" y1="0" x2="1" y2="0" gradientUnits="userSpaceOnUse" gradientTransform="matrix(335.053,-419.505,285.933,228.371,325.043,624.96)"><stop offset="0" style="stop-color:#f1a000;stop-opacity:1"/><stop offset="0.57" style="stop-color:#e56458;stop-opacity:1"/><stop offset="1" style="stop-color:#e04a7f;stop-opacity:1"/></linearGradient><linearGradient id="_Linear18" x1="0" y1="0" x2="1" y2="0" gradientUnits="userSpaceOnUse" gradientTransform="matrix(335.053,-419.505,285.933,228.371,325.043,624.96)"><stop offset="0" style="stop-color:#f1a000;stop-opacity:1"/><stop offset="0.57" style="stop-color:#e56458;stop-opacity:1"/><stop offset="1" style="stop-color:#e04a7f;stop-opacity:1"/></linearGradient></defs></svg>