<?xml version="1.0" encoding="UTF-8" standalone="no"?><!DOCTYPE svg PUBLIC "-//W3C//DTD SVG 1.1//EN" "http://www.w3.org/Graphics/SVG/1.1/DTD/svg11.dtd"><svg width="100%" height="100%" viewBox="0 0 1080 1080" version="1.1" xmlns="http://www.w3.org/2000/svg" xmlns:xlink="http://www.w3.org/1999/xlink" xml:space="preserve" xmlns:serif="http://www.serif.com/" style="fill-rule:evenodd;clip-rule:evenodd;stroke-linecap:round;stroke-linejoin:round;stroke-miterlimit:1.5;"><rect id="Rudern" x="-0" y="0" width="1080" height="1080" style="fill:none;"/><g><rect x="0" y="0" width="1080" height="1080" style="fill:#2f292b;"/><path d="M1080,0l-1080,0l0,1080l1080,0l-0,-1080Zm-20,20l-0,1040c-0,-0 -1040,0 -1040,0c0,-0 0,-1040 0,-1040c134.468,0 905.532,0 1040,0l-0,0Z" style="fill:url(#_Linear1);"/><g><path d="M465.146,671.132l0,-289.278l-320.592,144.639l320.592,144.639Z" style="fill:url(#_Linear2);stroke:#2f292b;stroke-width:8px;"/><path d="M465.146,671.132l0,-289.278l122.384,144.639l-122.384,144.639Z" style="fill:url(#_Linear3);stroke:#2f292b;stroke-width:8px;"/><path d="M610.723,526.493l-122.385,-144.639l447.108,144.639l-324.723,0Z" style="fill:url(#_Linear4);stroke:#2f292b;stroke-width:8px;"/><path d="M610.723,526.493l-122.385,144.639l447.108,-144.639l-324.723,0Z" style="fill:url(#_Linear5);stroke:#2f292b;stroke-width:8px;"/><path d="M586.969,526.493l-242.602,286.717l21.059,0l248.06,-286.717l-26.517,0Z" style="fill:url(#_Linear6);stroke:#2f292b;stroke-width:8px;"/><path d="M335.23,813.21l-82.18,58.591l55.993,53.21l72.734,-111.801l-46.547,0Z" style="fill:url(#_Linear7);stroke:#2f292b;stroke-width:8px;"/><path d="M586.969,526.493l-242.602,-286.717l21.059,0l248.06,286.717l-26.517,0Z" style="fill:url(#_Linear8);stroke:#2f292b;stroke-width:8px;"/><path d="M335.23,239.776l-82.18,-58.591l55.993,-53.21l72.734,111.801l-46.547,0Z" style="fill:url(#_Linear9);stroke:#2f292b;stroke-width:8px;"/></g></g><defs><linearGradient id="_Linear1" x1="0" y1="0" x2="1" y2="0" gradientUnits="userSpaceOnUse" gradientTransform="matrix(653.951,-1080,1080,653.951,233.64,1080)"><stop offset="0" style="stop-color:#f1a000;stop-opacity:1"/><stop offset="1" style="stop-color:#e04a7f;stop-opacity:1"/></linearGradient><linearGradient id="_Linear2" x1="0" y1="0" x2="1" y2="0" gradientUnits="userSpaceOnUse" gradientTransform="matrix(256.705,-408.916,-405.764,-254.726,314.228,792.051)"><stop offset="0" style="stop-color:#f1a000;stop-opacity:1"/><stop offset="1" style="stop-color:#e04a7f;stop-opacity:1"/></linearGradient><linearGradient id="_Linear3" x1="0" y1="0" x2="1" y2="0" gradientUnits="userSpaceOnUse" gradientTransform="matrix(256.705,-408.916,-405.764,-254.726,314.228,792.051)"><stop offset="0" style="stop-color:#f1a000;stop-opacity:1"/><stop offset="1" style="stop-color:#e04a7f;stop-opacity:1"/></linearGradient><linearGradient id="_Linear4" x1="0" y1="0" x2="1" y2="0" gradientUnits="userSpaceOnUse" gradientTransform="matrix(256.705,-408.916,-405.764,-254.726,314.228,792.051)"><stop offset="0" style="stop-color:#f1a000;stop-opacity:1"/><stop offset="1" style="stop-color:#e04a7f;stop-opacity:1"/></linearGradient><linearGradient id="_Linear5" x1="0" y1="0" x2="1" y2="0" gradientUnits="userSpaceOnUse" gradientTransform="matrix(256.705,-408.916,-405.764,-254.726,314.228,792.051)"><stop offset="0" style="stop-color:#f1a000;stop-opacity:1"/><stop offset="1" style="stop-color:#e04a7f;stop-opacity:1"/></linearGradient><linearGradient id="_Linear6" x1="0" y1="0" x2="1" y2="0" gradientUnits="userSpaceOnUse" gradientTransform="matrix(256.705,-408.916,-405.764,-254.726,314.228,792.051)"><stop offset="0" style="stop-color:#f1a000;stop-opacity:1"/><stop offset="1" style="stop-color:#e04a7f;stop-opacity:1"/></linearGradient><linearGradient id="_Linear7" x1="0" y1="0" x2="1" y2="0" gradientUnits="userSpaceOnUse" gradientTransform="matrix(256.705,-408.916,-405.764,-254.726,314.228,792.051)"><stop offset="0" style="stop-color:#f1a000;stop-opacity:1"/><stop offset="1" style="stop-color:#e04a7f;stop-opacity:1"/></linearGradient><linearGradient id="_Linear8" x1="0" y1="0" x2="1" y2="0" gradientUnits="userSpaceOnUse" gradientTransform="matrix(256.705,-408.916,-405.764,-254.726,314.228,792.051)"><stop offset="0" style="stop-color:#f1a000;stop-opacity:1"/><stop offset="1" style="stop-color:#e04a7f;stop-opacity:1"/></linearGradient><linearGradient id="_Linear9" x1="0" y1="0" x2="1" y2="0" gradientUnits="userSpaceOnUse" gradientTransform="matrix(256.705,-408.916,-405.764,-254.726,314.228,792.051)"><stop offset="0" style="stop-color:#f1a000;stop-opacity:1"/><stop offset="1" style="stop-color:#e04a7f;stop-opacity:1"/></linearGradient></defs></svg>