<?xml version="1.0" encoding="UTF-8" standalone="no"?><!DOCTYPE svg PUBLIC "-//W3C//DTD SVG 1.1//EN" "http://www.w3.org/Graphics/SVG/1.1/DTD/svg11.dtd"><svg width="100%" height="100%" viewBox="0 0 7938 1701" version="1.1" xmlns="http://www.w3.org/2000/svg" xmlns:xlink="http://www.w3.org/1999/xlink" xml:space="preserve" xmlns:serif="http://www.serif.com/" style="fill-rule:evenodd;clip-rule:evenodd;stroke-linecap:round;stroke-linejoin:round;stroke-miterlimit:1.5;"><rect id="xr_laufen" x="0" y="-0" width="7938" height="1701" style="fill:none;"/><clipPath id="_clip1"><rect x="0" y="-0" width="7938" height="1701"/></clipPath><g clip-path="url(#_clip1)"><path d="M7938,1701l0,-1701l-7938,0l-0,1701l7938,-0Zm-1701,-141.751l-6095.24,-0l0,-1417.5l6095.24,-0l0,1417.5Zm-5594.21,-714.748l-256.524,411.052l240.03,-0l130.517,-259.533l3,0l130.508,259.533l258.04,-0l-255.04,-426.054l229.537,-382.547l-220.527,-0l-123.024,241.53l-2.992,-0l-120.015,-241.53l-244.531,-0l231.021,397.549Zm934.6,-414.052c-144.018,0 -253.532,24.003 -328.541,60.008l0,765.096l234.029,-0l0,-664.584c15.002,-7.5 42.005,-12.001 70.509,-12.001c28.504,-0 60.008,6.001 85.511,19.502l42.005,-162.02c-24.003,-3 -67.508,-6.001 -103.513,-6.001m220.519,700.588l-37.504,84.01c51.006,34.505 138.017,55.507 217.527,55.507c165.02,0 276.034,-108.013 276.034,-238.538c0,-276.026 -345.043,-201.017 -345.043,-385.54c0,-70.517 43.506,-127.516 136.517,-127.516c52.507,0 108.014,19.495 150.019,46.506l34.504,-78.009c-54.006,-36.005 -124.515,-55.516 -202.525,-55.516c-148.519,0 -249.031,96.021 -249.031,220.536c-0,267.025 342.043,187.524 342.043,385.54c-0,79.518 -61.508,139.526 -156.02,139.526c-57.007,-0 -118.515,-16.502 -166.521,-46.506m603.076,-280.535c-0,247.531 118.514,420.052 313.539,420.052c75.009,0 138.017,-19.51 181.522,-52.506l-33.004,-82.51c-31.504,24.003 -78.009,39.004 -126.015,39.004c-127.516,0 -201.026,-144.018 -201.026,-327.04c0,-186.024 72.009,-325.541 201.026,-325.541c48.006,-0 96.012,16.494 127.516,40.505l31.503,-78.01c-43.505,-33.004 -106.513,-52.515 -181.522,-52.515c-193.524,0 -313.539,171.03 -313.539,418.561m930.107,-418.561c-115.514,0 -207.025,22.511 -276.034,57.016l-0,766.596l132.016,-0l0,-712.59c28.504,-15.001 66.009,-21.002 102.013,-21.002c30.004,-0 58.508,4.5 82.511,13.502l30.003,-99.013c-7.501,-1.508 -40.505,-4.509 -70.509,-4.509m155.953,417.061c0,262.533 132.017,421.552 363.046,421.552c94.511,0 187.523,-24.003 244.53,-57.007l-34.504,-85.51c-45.006,27.003 -123.015,48.006 -196.525,48.006c-171.779,-0 -253.281,-129.933 -253.281,-310.664l512.814,-0l-0,-52.382c-0,-255.032 -115.515,-381.047 -309.039,-381.047c-205.526,-0 -327.041,163.52 -327.041,417.052m123.466,-77.885c12.068,-154.653 80.026,-256.657 200.575,-256.657c126.016,-0 181.522,93.012 184.523,256.532c-0,-0 -385.107,0.183 -385.098,0.125m661.174,77.885c-0,262.533 132.016,421.552 363.045,421.552c94.512,0 187.524,-24.003 244.531,-57.007l-34.504,-85.51c-45.006,27.003 -123.016,48.006 -196.525,48.006c-171.771,-0 -253.282,-129.933 -253.282,-310.664l512.814,-0l0,-52.382c0,-255.032 -115.514,-381.047 -309.038,-381.047c-205.526,-0 -327.041,163.52 -327.041,417.052m123.465,-77.885c12.069,-154.653 80.027,-256.657 200.575,-256.657c126.016,-0 181.523,93.012 184.524,256.532c-0,-0 -385.107,0.183 -385.099,0.125m968.655,-339.176c-100.513,0 -199.525,22.511 -274.535,57.016l0,766.596l132.017,-0l-0,-712.59c42.005,-18.002 87.011,-27.003 142.518,-27.003c132.016,0 181.522,59.999 181.522,181.523l0,558.07l132.017,-0l-0,-558.07c-0,-171.022 -96.012,-265.542 -313.539,-265.542" style="fill:#231f20;fill-rule:nonzero;"/><g><g><path d="M7146.66,439.112l-66.168,156.304l-222.387,-12.313l288.555,-143.991Z" style="fill:#fff;stroke:#231f20;stroke-width:8px;"/><path d="M7146.66,439.112l-43.346,548.468l-122.78,-166.118l166.126,-382.35Z" style="fill:#fff;stroke:#231f20;stroke-width:8px;"/><path d="M7146.66,439.112l-27.151,343.551l210.427,-270.961l-183.276,-72.59Z" style="fill:#fff;stroke:#231f20;stroke-width:8px;"/><path d="M7224.72,279.001l0,191.029l208.503,-167.555l-208.503,-23.474Z" style="fill:#fff;stroke:#231f20;stroke-width:8px;"/><path d="M7433.22,302.475l-208.503,167.555l186.526,-73.615l21.977,-93.94Z" style="fill:#fff;stroke:#231f20;stroke-width:8px;"/><path d="M7235.74,632.985l276.749,103.494l-327.372,-38.308l50.623,-65.186Z" style="fill:#fff;stroke:#231f20;stroke-width:8px;"/><path d="M7119.51,782.663l325.575,328.103l-341.77,-123.186l16.195,-204.917Z" style="fill:#fff;stroke:#231f20;stroke-width:8px;"/><path d="M6980.53,821.462l122.78,166.118l-191.21,205.686l68.43,-371.804Z" style="fill:#fff;stroke:#231f20;stroke-width:8px;"/><path d="M6936.97,1058.06l-22.839,124.171l-304.699,50.233l327.538,-174.404Z" style="fill:#fff;stroke:#231f20;stroke-width:8px;"/><path d="M7290.07,1054.89l139.38,50.237l-1.457,329.989l-137.923,-380.226Z" style="fill:#fff;stroke:#231f20;stroke-width:8px;"/><path d="M6967.76,588.704l-201.72,267.464l106.32,-272.275l95.4,4.811Z" style="fill:#fff;stroke:#231f20;stroke-width:8px;"/></g></g></g></svg>