<?xml version="1.0" encoding="UTF-8" standalone="no"?><!DOCTYPE svg PUBLIC "-//W3C//DTD SVG 1.1//EN" "http://www.w3.org/Graphics/SVG/1.1/DTD/svg11.dtd"><svg width="100%" height="100%" viewBox="0 0 1080 1080" version="1.1" xmlns="http://www.w3.org/2000/svg" xmlns:xlink="http://www.w3.org/1999/xlink" xml:space="preserve" xmlns:serif="http://www.serif.com/" style="fill-rule:evenodd;clip-rule:evenodd;stroke-linecap:round;stroke-linejoin:round;stroke-miterlimit:1.5;"><rect id="Yoga" x="-0" y="0" width="1080" height="1080" style="fill:none;"/><rect x="0" y="0" width="1080" height="1080" style="fill:#231f20;"/><path d="M1080,0l-1080,0l0,1080l1080,-0l-0,-1080Zm-20,20l-0,1040c-0,-0 -1040,-0 -1040,-0c0,-0 0,-894.157 0,-1040c145.843,0 1040,0 1040,0l-0,0Z" style="fill:#fff;"/><g><path d="M425.426,374.231l231.266,0l-184.419,376.418l-46.847,-376.418Z" style="fill:#fff;stroke:#231f20;stroke-width:8px;"/><path d="M617.896,750.649l-145.623,0l184.419,-376.418l-38.796,376.418Z" style="fill:#fff;stroke:#231f20;stroke-width:8px;"/><path d="M647.871,459.812l8.821,-85.581l151.271,224.495l-160.092,-138.914Z" style="fill:#fff;stroke:#231f20;stroke-width:8px;"/><path d="M792.83,576.269l-27.762,-41.202l181.731,-87.958l-153.969,129.16Z" style="fill:#fff;stroke:#231f20;stroke-width:8px;"/><path d="M435.95,458.796l-10.524,-84.565l-153.389,224.495l163.913,-139.93Z" style="fill:#fff;stroke:#231f20;stroke-width:8px;"/><path d="M287.381,576.269l27.847,-40.755l-182.027,-88.405l154.18,129.16Z" style="fill:#fff;stroke:#231f20;stroke-width:8px;"/><path d="M794.052,745.789l-113.139,133.62l-425.08,-182.94l538.219,49.32Z" style="fill:#fff;stroke:#231f20;stroke-width:8px;"/><path d="M278.323,745.789l113.139,133.62l425.08,-182.94l-538.219,49.32Z" style="fill:#fff;stroke:#231f20;stroke-width:8px;"/><path d="M536.188,363.782l75.824,-163.191l-151.649,-0l75.825,163.191Z" style="fill:#fff;stroke:#231f20;stroke-width:8px;stroke-miterlimit:5;"/></g></svg>