<?xml version="1.0" encoding="UTF-8" standalone="no"?><!DOCTYPE svg PUBLIC "-//W3C//DTD SVG 1.1//EN" "http://www.w3.org/Graphics/SVG/1.1/DTD/svg11.dtd"><svg width="100%" height="100%" viewBox="0 0 167 150" version="1.1" xmlns="http://www.w3.org/2000/svg" xmlns:xlink="http://www.w3.org/1999/xlink" xml:space="preserve" xmlns:serif="http://www.serif.com/" style="fill-rule:evenodd;clip-rule:evenodd;stroke-linejoin:round;stroke-miterlimit:2;"><path d="M12.5,150c-3.472,0 -6.424,-1.215 -8.854,-3.646c-2.431,-2.43 -3.646,-5.382 -3.646,-8.854l0,-137.5l13.958,13.958l13.75,-13.958l13.959,13.958l13.958,-13.958l13.75,13.958l13.958,-13.958l13.959,13.958l13.75,-13.958l13.958,13.958l13.958,-13.958l13.75,13.958l13.959,-13.958l-0,137.5c-0,3.472 -1.216,6.424 -3.646,8.854c-2.431,2.431 -5.382,3.646 -8.854,3.646l-141.667,0Zm0,-12.5l64.583,0l0,-58.333l-64.583,-0l0,58.333Zm77.083,0l64.584,0l-0,-22.917l-64.584,0l0,22.917Zm0,-35.417l64.584,0l-0,-22.916l-64.584,-0l0,22.916Zm-77.083,-35.416l141.667,-0l-0,-25l-141.667,-0l0,25Z" style="fill-rule:nonzero;"/></svg>