<?xml version="1.0" encoding="UTF-8" standalone="no"?><!DOCTYPE svg PUBLIC "-//W3C//DTD SVG 1.1//EN" "http://www.w3.org/Graphics/SVG/1.1/DTD/svg11.dtd"><svg width="100%" height="100%" viewBox="0 0 171 171" version="1.1" xmlns="http://www.w3.org/2000/svg" xmlns:xlink="http://www.w3.org/1999/xlink" xml:space="preserve" xmlns:serif="http://www.serif.com/" style="fill-rule:evenodd;clip-rule:evenodd;stroke-linejoin:round;stroke-miterlimit:2;"><path d="M13.958,170.625l19.792,-19.792c6.944,5 14.583,8.889 22.917,11.667c8.333,2.778 17.222,4.167 26.666,4.167c11.806,-0 22.778,-2.118 32.917,-6.354c10.139,-4.237 18.958,-10.105 26.458,-17.605c7.5,-7.5 13.368,-16.319 17.605,-26.458c4.236,-10.139 6.354,-21.111 6.354,-32.917c-0,-9.444 -1.389,-18.333 -4.167,-26.666c-2.778,-8.334 -6.667,-15.973 -11.667,-22.917l19.792,-19.792l-8.958,-8.958l-156.667,156.667l8.958,8.958Zm69.375,-16.458c-7.639,-0 -14.861,-1.077 -21.666,-3.229c-6.806,-2.153 -13.125,-5.174 -18.959,-9.063l99.167,-99.167c3.889,5.834 6.91,12.153 9.063,18.959c2.152,6.805 3.229,14.027 3.229,21.666c-0,20.139 -6.771,36.98 -20.313,50.521c-13.542,13.542 -30.382,20.313 -50.521,20.313Zm-67.5,-21.25l8.959,-8.959c-3.889,-5.833 -6.91,-12.152 -9.063,-18.958c-2.153,-6.806 -3.229,-14.028 -3.229,-21.667c-0,-20.139 6.771,-36.979 20.312,-50.52c13.542,-13.542 30.382,-20.313 50.521,-20.313c7.639,0 14.861,1.076 21.667,3.229c6.806,2.153 13.125,5.174 18.958,9.063l8.959,-8.959c-6.945,-5 -14.584,-8.889 -22.917,-11.666c-8.333,-2.778 -17.222,-4.167 -26.667,-4.167c-11.666,0 -22.569,2.153 -32.708,6.458c-10.139,4.306 -18.958,10.209 -26.458,17.709c-7.5,7.5 -13.403,16.319 -17.709,26.458c-4.305,10.139 -6.458,21.042 -6.458,32.708c0,9.445 1.389,18.334 4.167,26.667c2.777,8.333 6.666,15.972 11.666,22.917Z" style="fill-rule:nonzero;"/></svg>