<?xml version="1.0" encoding="UTF-8" standalone="no"?><!DOCTYPE svg PUBLIC "-//W3C//DTD SVG 1.1//EN" "http://www.w3.org/Graphics/SVG/1.1/DTD/svg11.dtd"><svg width="100%" height="100%" viewBox="0 0 150 167" version="1.1" xmlns="http://www.w3.org/2000/svg" xmlns:xlink="http://www.w3.org/1999/xlink" xml:space="preserve" xmlns:serif="http://www.serif.com/" style="fill-rule:evenodd;clip-rule:evenodd;stroke-linejoin:round;stroke-miterlimit:2;"><path d="M99.375,137.5c-5.694,0 -10.486,-1.944 -14.375,-5.833c-3.889,-3.889 -5.833,-8.681 -5.833,-14.375c-0,-5.695 1.944,-10.486 5.833,-14.375c3.889,-3.889 8.681,-5.834 14.375,-5.834c5.694,0 10.486,1.945 14.375,5.834c3.889,3.889 5.833,8.68 5.833,14.375c0,5.694 -1.944,10.486 -5.833,14.375c-3.889,3.889 -8.681,5.833 -14.375,5.833Zm-86.875,29.167c-3.333,-0 -6.25,-1.25 -8.75,-3.75c-2.5,-2.5 -3.75,-5.417 -3.75,-8.75l0,-129.167c0,-3.333 1.25,-6.25 3.75,-8.75c2.5,-2.5 5.417,-3.75 8.75,-3.75l13.542,0l-0,-12.5l13.541,0l0,12.5l70.834,0l-0,-12.5l13.541,0l0,12.5l13.542,0c3.333,0 6.25,1.25 8.75,3.75c2.5,2.5 3.75,5.417 3.75,8.75l0,129.167c0,3.333 -1.25,6.25 -3.75,8.75c-2.5,2.5 -5.417,3.75 -8.75,3.75l-125,-0Zm0,-12.5l125,-0l0,-89.584l-125,0l0,89.584Zm0,-102.084l125,0l0,-27.083l-125,0l0,27.083Zm0,0l0,-27.083l0,27.083Z" style="fill-rule:nonzero;"/></svg>