<?xml version="1.0" encoding="UTF-8" standalone="no"?><!DOCTYPE svg PUBLIC "-//W3C//DTD SVG 1.1//EN" "http://www.w3.org/Graphics/SVG/1.1/DTD/svg11.dtd"><svg width="100%" height="100%" viewBox="0 0 153 153" version="1.1" xmlns="http://www.w3.org/2000/svg" xmlns:xlink="http://www.w3.org/1999/xlink" xml:space="preserve" xmlns:serif="http://www.serif.com/" style="fill-rule:evenodd;clip-rule:evenodd;stroke-linejoin:round;stroke-miterlimit:2;"><path d="M12.5,140.208l9.167,0l92.291,-92.291l-9.166,-9.167l-92.292,92.292l0,9.166Zm127.917,-101.25l-26.667,-26.666l8.75,-8.75c2.361,-2.361 5.278,-3.542 8.75,-3.542c3.472,0 6.389,1.181 8.75,3.542l9.167,9.166c2.361,2.361 3.541,5.278 3.541,8.75c0,3.473 -1.18,6.389 -3.541,8.75l-8.75,8.75Zm-8.75,8.75l-105,105l-26.667,0l0,-26.666l105,-105l26.667,26.666Zm-17.709,0.209l-9.166,-9.167l9.166,9.167Z" style="fill-rule:nonzero;"/></svg>