<?xml version="1.0" encoding="UTF-8" standalone="no"?><!DOCTYPE svg PUBLIC "-//W3C//DTD SVG 1.1//EN" "http://www.w3.org/Graphics/SVG/1.1/DTD/svg11.dtd"><svg width="100%" height="100%" viewBox="0 0 137 134" version="1.1" xmlns="http://www.w3.org/2000/svg" xmlns:xlink="http://www.w3.org/1999/xlink" xml:space="preserve" xmlns:serif="http://www.serif.com/" style="fill-rule:evenodd;clip-rule:evenodd;stroke-linejoin:round;stroke-miterlimit:2;"><path d="M59.826,133.333c-2.361,0 -4.34,-0.798 -5.937,-2.395c-1.597,-1.598 -2.396,-3.577 -2.396,-5.938l0,-50l-49.792,-63.542c-1.944,-2.361 -2.222,-4.861 -0.833,-7.5c1.389,-2.639 3.542,-3.958 6.458,-3.958l121.667,0c2.917,0 5.069,1.319 6.458,3.958c1.389,2.639 1.111,5.139 -0.833,7.5l-49.792,63.542l0,50c0,2.361 -0.798,4.34 -2.395,5.938c-1.598,1.597 -3.577,2.395 -5.938,2.395l-16.667,0Zm8.334,-57.5l50,-63.333l-100,0l50,63.333Z" style="fill-rule:nonzero;"/></svg>