<?xml version="1.0" encoding="UTF-8" standalone="no"?><!DOCTYPE svg PUBLIC "-//W3C//DTD SVG 1.1//EN" "http://www.w3.org/Graphics/SVG/1.1/DTD/svg11.dtd"><svg width="100%" height="100%" viewBox="0 0 150 150" version="1.1" xmlns="http://www.w3.org/2000/svg" xmlns:xlink="http://www.w3.org/1999/xlink" xml:space="preserve" xmlns:serif="http://www.serif.com/" style="fill-rule:evenodd;clip-rule:evenodd;stroke-linejoin:round;stroke-miterlimit:2;"><path d="M81.25,56.25l0,-56.25l68.75,0l0,56.25l-68.75,0Zm-81.25,25l0,-81.25l68.75,0l0,81.25l-68.75,0Zm81.25,68.75l0,-81.25l68.75,0l0,81.25l-68.75,0Zm-81.25,0l0,-56.25l68.75,0l0,56.25l-68.75,0Zm12.5,-81.25l43.75,0l0,-56.25l-43.75,0l0,56.25Zm81.25,68.75l43.75,0l0,-56.25l-43.75,0l0,56.25Zm0,-93.75l43.75,0l0,-31.25l-43.75,0l0,31.25Zm-81.25,93.75l43.75,0l0,-31.25l-43.75,0l0,31.25Z" style="fill-rule:nonzero;"/></svg>