<?xml version="1.0" encoding="UTF-8" standalone="no"?><!DOCTYPE svg PUBLIC "-//W3C//DTD SVG 1.1//EN" "http://www.w3.org/Graphics/SVG/1.1/DTD/svg11.dtd"><svg width="100%" height="100%" viewBox="0 0 200 200" version="1.1" xmlns="http://www.w3.org/2000/svg" xmlns:xlink="http://www.w3.org/1999/xlink" xml:space="preserve" xmlns:serif="http://www.serif.com/" style="fill-rule:evenodd;clip-rule:evenodd;stroke-linejoin:round;stroke-miterlimit:2;"><path d="M16.667,81.25l-0,-35.417c-0,-3.333 1.25,-6.25 3.75,-8.75c2.5,-2.5 5.416,-3.75 8.75,-3.75l141.666,0c3.334,0 6.25,1.25 8.75,3.75c2.5,2.5 3.75,5.417 3.75,8.75l0,35.417l-12.5,0l0,-35.417l-141.666,0l-0,35.417l-12.5,0Zm12.5,85.417c-3.334,-0 -6.25,-1.25 -8.75,-3.75c-2.5,-2.5 -3.75,-5.417 -3.75,-8.75l-0,-35.417l12.5,0l-0,35.417l141.666,-0l0,-35.417l12.5,0l0,35.417c0,3.333 -1.25,6.25 -3.75,8.75c-2.5,2.5 -5.416,3.75 -8.75,3.75l-141.666,-0Zm54.166,-27.084c1.111,0 2.188,-0.277 3.23,-0.833c1.041,-0.556 1.84,-1.389 2.395,-2.5l27.709,-55.417l11.041,22.084c0.556,1.111 1.355,1.944 2.396,2.5c1.042,0.555 2.118,0.833 3.229,0.833l50,0l0,-12.5l-46.041,0l-15,-29.792c-0.556,-1.111 -1.354,-1.909 -2.396,-2.395c-1.042,-0.487 -2.118,-0.73 -3.229,-0.73c-1.111,0 -2.188,0.243 -3.229,0.73c-1.042,0.486 -1.841,1.284 -2.396,2.395l-27.709,55.209l-11.041,-22.084c-0.556,-1.111 -1.354,-1.944 -2.396,-2.5c-1.042,-0.555 -2.118,-0.833 -3.229,-0.833l-50,0l-0,12.5l46.041,0l15,30c0.556,1.111 1.355,1.944 2.396,2.5c1.042,0.556 2.118,0.833 3.229,0.833Z" style="fill-rule:nonzero;"/></svg>