<?xml version="1.0" encoding="UTF-8" standalone="no"?><!DOCTYPE svg PUBLIC "-//W3C//DTD SVG 1.1//EN" "http://www.w3.org/Graphics/SVG/1.1/DTD/svg11.dtd"><svg width="100%" height="100%" viewBox="0 0 167 167" version="1.1" xmlns="http://www.w3.org/2000/svg" xmlns:xlink="http://www.w3.org/1999/xlink" xml:space="preserve" xmlns:serif="http://www.serif.com/" style="fill-rule:evenodd;clip-rule:evenodd;stroke-linejoin:round;stroke-miterlimit:2;"><path d="M84.167,131.875c2.222,0 4.097,-0.764 5.625,-2.292c1.527,-1.527 2.291,-3.402 2.291,-5.625c0,-2.222 -0.764,-4.097 -2.291,-5.625c-1.528,-1.527 -3.403,-2.291 -5.625,-2.291c-2.223,-0 -4.098,0.764 -5.625,2.291c-1.528,1.528 -2.292,3.403 -2.292,5.625c-0,2.223 0.764,4.098 2.292,5.625c1.527,1.528 3.402,2.292 5.625,2.292Zm-7.292,-30.417l12.292,0c-0,-3.611 0.451,-6.909 1.354,-9.895c0.903,-2.987 3.715,-6.424 8.437,-10.313c4.306,-3.611 7.361,-7.153 9.167,-10.625c1.806,-3.472 2.708,-7.292 2.708,-11.458c0,-7.361 -2.395,-13.264 -7.187,-17.709c-4.792,-4.444 -11.146,-6.666 -19.063,-6.666c-6.805,-0 -12.812,1.701 -18.021,5.104c-5.208,3.403 -8.993,8.09 -11.354,14.062l11.042,4.167c1.528,-3.889 3.819,-6.91 6.875,-9.063c3.056,-2.152 6.667,-3.229 10.833,-3.229c4.723,0 8.542,1.285 11.459,3.855c2.916,2.569 4.375,5.868 4.375,9.895c-0,3.056 -0.903,5.938 -2.709,8.646c-1.805,2.709 -4.444,5.521 -7.916,8.438c-4.167,3.611 -7.257,7.187 -9.271,10.729c-2.014,3.541 -3.021,8.229 -3.021,14.062Zm6.458,65.209c-11.389,-0 -22.152,-2.188 -32.291,-6.563c-10.139,-4.375 -18.993,-10.347 -26.563,-17.916c-7.569,-7.57 -13.541,-16.424 -17.916,-26.563c-4.375,-10.139 -6.563,-20.903 -6.563,-32.292c0,-11.527 2.188,-22.361 6.563,-32.5c4.375,-10.139 10.347,-18.958 17.916,-26.458c7.57,-7.5 16.424,-13.438 26.563,-17.813c10.139,-4.375 20.902,-6.562 32.291,-6.562c11.528,-0 22.361,2.187 32.5,6.562c10.139,4.375 18.959,10.313 26.459,17.813c7.5,7.5 13.437,16.319 17.812,26.458c4.375,10.139 6.563,20.973 6.563,32.5c-0,11.389 -2.188,22.153 -6.563,32.292c-4.375,10.139 -10.312,18.993 -17.812,26.563c-7.5,7.569 -16.32,13.541 -26.459,17.916c-10.139,4.375 -20.972,6.563 -32.5,6.563Zm0,-12.5c19.723,-0 36.459,-6.91 50.209,-20.729c13.75,-13.82 20.625,-30.521 20.625,-50.105c-0,-19.722 -6.875,-36.458 -20.625,-50.208c-13.75,-13.75 -30.486,-20.625 -50.209,-20.625c-19.583,0 -36.284,6.875 -50.104,20.625c-13.819,13.75 -20.729,30.486 -20.729,50.208c0,19.584 6.91,36.285 20.729,50.105c13.82,13.819 30.521,20.729 50.104,20.729Z" style="fill-rule:nonzero;"/></svg>