<?xml version="1.0" encoding="UTF-8" standalone="no"?><!DOCTYPE svg PUBLIC "-//W3C//DTD SVG 1.1//EN" "http://www.w3.org/Graphics/SVG/1.1/DTD/svg11.dtd"><svg width="100%" height="100%" viewBox="0 0 167 167" version="1.1" xmlns="http://www.w3.org/2000/svg" xmlns:xlink="http://www.w3.org/1999/xlink" xml:space="preserve" xmlns:serif="http://www.serif.com/" style="fill-rule:evenodd;clip-rule:evenodd;stroke-linejoin:round;stroke-miterlimit:2;"><path d="M77.708,125l12.5,0l0,-50l-12.5,0l0,50Zm5.625,-65.417c1.945,0 3.577,-0.625 4.896,-1.875c1.32,-1.25 1.979,-2.847 1.979,-4.791c0,-1.945 -0.659,-3.611 -1.979,-5c-1.319,-1.389 -2.951,-2.084 -4.896,-2.084c-1.944,0 -3.576,0.695 -4.895,2.084c-1.32,1.389 -1.98,3.055 -1.98,5c0,1.944 0.66,3.541 1.98,4.791c1.319,1.25 2.951,1.875 4.895,1.875Zm0,107.084c-11.389,-0 -22.152,-2.188 -32.291,-6.563c-10.139,-4.375 -18.993,-10.347 -26.563,-17.916c-7.569,-7.57 -13.541,-16.424 -17.916,-26.563c-4.375,-10.139 -6.563,-20.972 -6.563,-32.5c0,-11.389 2.188,-22.153 6.563,-32.292c4.375,-10.139 10.347,-18.958 17.916,-26.458c7.57,-7.5 16.424,-13.438 26.563,-17.813c10.139,-4.375 20.972,-6.562 32.5,-6.562c11.389,-0 22.152,2.187 32.291,6.562c10.139,4.375 18.959,10.313 26.459,17.813c7.5,7.5 13.437,16.319 17.812,26.458c4.375,10.139 6.563,20.973 6.563,32.5c-0,11.389 -2.188,22.153 -6.563,32.292c-4.375,10.139 -10.312,18.993 -17.812,26.563c-7.5,7.569 -16.32,13.541 -26.459,17.916c-10.139,4.375 -20.972,6.563 -32.5,6.563Zm0.209,-12.5c19.583,-0 36.25,-6.91 50,-20.729c13.75,-13.82 20.625,-30.591 20.625,-50.313c-0,-19.583 -6.875,-36.25 -20.625,-50c-13.75,-13.75 -30.486,-20.625 -50.209,-20.625c-19.583,0 -36.284,6.875 -50.104,20.625c-13.819,13.75 -20.729,30.486 -20.729,50.208c0,19.584 6.91,36.285 20.729,50.105c13.82,13.819 30.59,20.729 50.313,20.729Z" style="fill-rule:nonzero;"/></svg>