<?xml version="1.0" encoding="UTF-8" standalone="no"?><!DOCTYPE svg PUBLIC "-//W3C//DTD SVG 1.1//EN" "http://www.w3.org/Graphics/SVG/1.1/DTD/svg11.dtd"><svg width="100%" height="100%" viewBox="0 0 134 167" version="1.1" xmlns="http://www.w3.org/2000/svg" xmlns:xlink="http://www.w3.org/1999/xlink" xml:space="preserve" xmlns:serif="http://www.serif.com/" style="fill-rule:evenodd;clip-rule:evenodd;stroke-linejoin:round;stroke-miterlimit:2;"><path d="M66.667,81.25c4.027,0 7.465,-1.424 10.312,-4.271c2.847,-2.847 4.271,-6.285 4.271,-10.312c0,-4.028 -1.424,-7.466 -4.271,-10.313c-2.847,-2.847 -6.285,-4.271 -10.312,-4.271c-4.028,0 -7.466,1.424 -10.313,4.271c-2.847,2.847 -4.271,6.285 -4.271,10.313c0,4.027 1.424,7.465 4.271,10.312c2.847,2.847 6.285,4.271 10.313,4.271Zm-0,68.958c18.472,-16.805 32.118,-32.048 40.937,-45.729c8.82,-13.68 13.229,-25.729 13.229,-36.146c0,-16.389 -5.243,-29.791 -15.729,-40.208c-10.486,-10.417 -23.298,-15.625 -38.437,-15.625c-15.139,0 -27.952,5.208 -38.438,15.625c-10.486,10.417 -15.729,23.819 -15.729,40.208c0,10.417 4.514,22.466 13.542,36.146c9.027,13.681 22.569,28.924 40.625,45.729Zm-0,16.459c-22.361,-19.028 -39.063,-36.702 -50.105,-53.021c-11.041,-16.32 -16.562,-31.424 -16.562,-45.313c0,-20.833 6.701,-37.43 20.104,-49.791c13.403,-12.361 28.924,-18.542 46.563,-18.542c17.639,0 33.159,6.181 46.562,18.542c13.403,12.361 20.104,28.958 20.104,49.791c0,13.889 -5.52,28.993 -16.562,45.313c-11.042,16.319 -27.743,33.993 -50.104,53.021Z" style="fill-rule:nonzero;"/></svg>