<?xml version="1.0" encoding="UTF-8" standalone="no"?><!DOCTYPE svg PUBLIC "-//W3C//DTD SVG 1.1//EN" "http://www.w3.org/Graphics/SVG/1.1/DTD/svg11.dtd"><svg width="100%" height="100%" viewBox="0 0 134 175" version="1.1" xmlns="http://www.w3.org/2000/svg" xmlns:xlink="http://www.w3.org/1999/xlink" xml:space="preserve" xmlns:serif="http://www.serif.com/" style="fill-rule:evenodd;clip-rule:evenodd;stroke-linejoin:round;stroke-miterlimit:2;"><path d="M12.5,175c-3.472,0 -6.424,-1.215 -8.854,-3.646c-2.431,-2.43 -3.646,-5.382 -3.646,-8.854l0,-90.417c0,-3.472 1.215,-6.423 3.646,-8.854c2.43,-2.43 5.382,-3.646 8.854,-3.646l14.583,0l0,-20c0,-10.972 3.854,-20.312 11.563,-28.02c7.708,-7.709 17.048,-11.563 28.021,-11.563c10.972,0 20.312,3.854 28.02,11.563c7.709,7.708 11.563,17.048 11.563,28.02l0,20l14.583,0c3.473,0 6.424,1.216 8.855,3.646c2.43,2.431 3.645,5.382 3.645,8.854l0,90.417c0,3.472 -1.215,6.424 -3.645,8.854c-2.431,2.431 -5.382,3.646 -8.855,3.646l-108.333,0Zm0,-12.5l108.333,0l0,-90.417l-108.333,0l0,90.417Zm54.167,-29.167c4.444,0 8.229,-1.527 11.354,-4.583c3.125,-3.056 4.687,-6.736 4.687,-11.042c0,-4.166 -1.562,-7.951 -4.687,-11.354c-3.125,-3.403 -6.91,-5.104 -11.354,-5.104c-4.445,0 -8.229,1.701 -11.354,5.104c-3.125,3.403 -4.688,7.188 -4.688,11.354c0,4.306 1.563,7.986 4.688,11.042c3.125,3.056 6.909,4.583 11.354,4.583Zm-27.084,-73.75l54.167,0l0,-20c0,-7.5 -2.639,-13.889 -7.917,-19.166c-5.277,-5.278 -11.666,-7.917 -19.166,-7.917c-7.5,0 -13.889,2.639 -19.167,7.917c-5.278,5.277 -7.917,11.666 -7.917,19.166l0,20Zm-27.083,102.917l0,-90.417l0,90.417Z" style="fill-rule:nonzero;"/></svg>