<?xml version="1.0" encoding="UTF-8" standalone="no"?><!DOCTYPE svg PUBLIC "-//W3C//DTD SVG 1.1//EN" "http://www.w3.org/Graphics/SVG/1.1/DTD/svg11.dtd"><svg width="100%" height="100%" viewBox="0 0 167 134" version="1.1" xmlns="http://www.w3.org/2000/svg" xmlns:xlink="http://www.w3.org/1999/xlink" xml:space="preserve" xmlns:serif="http://www.serif.com/" style="fill-rule:evenodd;clip-rule:evenodd;stroke-linejoin:round;stroke-miterlimit:2;"><path d="M12.5,133.333c-3.333,0 -6.25,-1.25 -8.75,-3.75c-2.5,-2.5 -3.75,-5.416 -3.75,-8.75l0,-108.333c0,-3.333 1.25,-6.25 3.75,-8.75c2.5,-2.5 5.417,-3.75 8.75,-3.75l141.667,0c3.333,0 6.25,1.25 8.75,3.75c2.5,2.5 3.75,5.417 3.75,8.75l-0,108.333c-0,3.334 -1.25,6.25 -3.75,8.75c-2.5,2.5 -5.417,3.75 -8.75,3.75l-141.667,0Zm70.833,-62.916l-70.833,-46.459l0,96.875l141.667,0l-0,-96.875l-70.834,46.459Zm0,-12.5l70,-45.417l-139.791,0l69.791,45.417Zm-70.833,62.916l0,-108.333l0,108.333Z" style="fill-rule:nonzero;"/></svg>