<?xml version="1.0" encoding="UTF-8" standalone="no"?><!DOCTYPE svg PUBLIC "-//W3C//DTD SVG 1.1//EN" "http://www.w3.org/Graphics/SVG/1.1/DTD/svg11.dtd"><svg width="100%" height="100%" viewBox="0 0 134 130" version="1.1" xmlns="http://www.w3.org/2000/svg" xmlns:xlink="http://www.w3.org/1999/xlink" xml:space="preserve" xmlns:serif="http://www.serif.com/" style="fill-rule:evenodd;clip-rule:evenodd;stroke-linejoin:round;stroke-miterlimit:2;"><path d="M66.667,62.5c-9.167,0 -16.667,-2.917 -22.5,-8.75c-5.834,-5.833 -8.75,-13.333 -8.75,-22.5c-0,-9.167 2.916,-16.667 8.75,-22.5c5.833,-5.833 13.333,-8.75 22.5,-8.75c9.166,0 16.666,2.917 22.5,8.75c5.833,5.833 8.75,13.333 8.75,22.5c-0,9.167 -2.917,16.667 -8.75,22.5c-5.834,5.833 -13.334,8.75 -22.5,8.75Zm-66.667,66.875l0,-19.583c0,-5.278 1.319,-9.792 3.958,-13.542c2.639,-3.75 6.042,-6.597 10.209,-8.542c9.305,-4.166 18.229,-7.291 26.77,-9.375c8.542,-2.083 17.119,-3.125 25.73,-3.125c8.611,0 17.152,1.077 25.625,3.23c8.472,2.152 17.361,5.243 26.666,9.27c4.306,1.945 7.778,4.792 10.417,8.542c2.639,3.75 3.958,8.264 3.958,13.542l0,19.583l-133.333,0Zm12.5,-12.5l108.333,0l0,-7.083c0,-2.223 -0.659,-4.341 -1.979,-6.355c-1.319,-2.013 -2.951,-3.506 -4.896,-4.479c-8.889,-4.305 -17.014,-7.257 -24.375,-8.854c-7.361,-1.597 -15,-2.396 -22.916,-2.396c-7.917,0 -15.625,0.799 -23.125,2.396c-7.5,1.597 -15.625,4.549 -24.375,8.854c-1.945,0.973 -3.542,2.466 -4.792,4.48c-1.25,2.013 -1.875,4.131 -1.875,6.354l-0,7.083Zm54.167,-66.875c5.416,0 9.895,-1.771 13.437,-5.312c3.542,-3.542 5.313,-8.021 5.313,-13.438c-0,-5.417 -1.771,-9.896 -5.313,-13.437c-3.541,-3.542 -8.021,-5.313 -13.437,-5.313c-5.417,0 -9.896,1.771 -13.438,5.313c-3.541,3.541 -5.312,8.02 -5.312,13.437c-0,5.417 1.771,9.896 5.312,13.438c3.542,3.541 8.021,5.312 13.438,5.312Z" style="fill-rule:nonzero;"/></svg>