<?xml version="1.0" encoding="UTF-8" standalone="no"?><!DOCTYPE svg PUBLIC "-//W3C//DTD SVG 1.1//EN" "http://www.w3.org/Graphics/SVG/1.1/DTD/svg11.dtd"><svg width="100%" height="100%" viewBox="0 0 150 150" version="1.1" xmlns="http://www.w3.org/2000/svg" xmlns:xlink="http://www.w3.org/1999/xlink" xml:space="preserve" xmlns:serif="http://www.serif.com/" style="fill-rule:evenodd;clip-rule:evenodd;stroke-linejoin:round;stroke-miterlimit:2;"><path d="M68.75,116.667l12.5,-0l0,-35.417l35.417,0l-0,-12.5l-35.417,0l0,-35.417l-12.5,0l0,35.417l-35.417,0l0,12.5l35.417,0l0,35.417Zm-56.25,33.333c-3.333,0 -6.25,-1.25 -8.75,-3.75c-2.5,-2.5 -3.75,-5.417 -3.75,-8.75l0,-125c0,-3.333 1.25,-6.25 3.75,-8.75c2.5,-2.5 5.417,-3.75 8.75,-3.75l125,0c3.333,0 6.25,1.25 8.75,3.75c2.5,2.5 3.75,5.417 3.75,8.75l0,125c0,3.333 -1.25,6.25 -3.75,8.75c-2.5,2.5 -5.417,3.75 -8.75,3.75l-125,0Zm0,-12.5l125,0l0,-125l-125,0l0,125Zm0,-125l0,125l0,-125Z" style="fill-rule:nonzero;"/></svg>