<?xml version="1.0" encoding="UTF-8" standalone="no"?><!DOCTYPE svg PUBLIC "-//W3C//DTD SVG 1.1//EN" "http://www.w3.org/Graphics/SVG/1.1/DTD/svg11.dtd"><svg width="100%" height="100%" viewBox="0 0 167 167" version="1.1" xmlns="http://www.w3.org/2000/svg" xmlns:xlink="http://www.w3.org/1999/xlink" xml:space="preserve" xmlns:serif="http://www.serif.com/" style="fill-rule:evenodd;clip-rule:evenodd;stroke-linejoin:round;stroke-miterlimit:2;"><path d="M0,36.042l0,-36.042l36.042,0l-0,12.5l-23.542,0l0,23.542l-12.5,-0Zm0,130.625l0,-36.042l12.5,0l0,23.542l23.542,-0l-0,12.5l-36.042,-0Zm130.625,-0l0,-12.5l23.542,-0l-0,-23.542l12.5,0l-0,36.042l-36.042,-0Zm23.542,-130.625l-0,-23.542l-23.542,0l0,-12.5l36.042,0l-0,36.042l-12.5,-0Zm-23.334,95l13.125,-0l0,13.125l-13.125,-0l0,-13.125Zm0,-26.25l13.125,-0l0,13.125l-13.125,-0l0,-13.125Zm-13.125,13.125l13.125,-0l0,13.125l-13.125,-0l0,-13.125Zm-13.125,13.125l13.125,-0l0,13.125l-13.125,-0l0,-13.125Zm-13.125,-13.125l13.125,-0l0,13.125l-13.125,-0l0,-13.125Zm26.25,-26.25l13.125,-0l0,13.125l-13.125,-0l0,-13.125Zm-13.125,13.125l13.125,-0l0,13.125l-13.125,-0l0,-13.125Zm-13.125,-13.125l13.125,-0l0,13.125l-13.125,-0l0,-13.125Zm52.5,-69.167l0,52.5l-52.5,0l0,-52.5l52.5,-0Zm-68.958,69.167l0,52.5l-52.5,-0l0,-52.5l52.5,-0Zm0,-69.167l0,52.5l-52.5,0l0,-52.5l52.5,-0Zm-10.417,111.25l0,-31.667l-31.666,0l-0,31.667l31.666,0Zm0,-69.167l0,-31.666l-31.666,-0l-0,31.666l31.666,0Zm68.959,0l-0,-31.666l-31.667,-0l-0,31.666l31.667,0Z" style="fill-rule:nonzero;"/></svg>