<?xml version="1.0" encoding="UTF-8" standalone="no"?><!DOCTYPE svg PUBLIC "-//W3C//DTD SVG 1.1//EN" "http://www.w3.org/Graphics/SVG/1.1/DTD/svg11.dtd"><svg width="100%" height="100%" viewBox="0 0 150 150" version="1.1" xmlns="http://www.w3.org/2000/svg" xmlns:xlink="http://www.w3.org/1999/xlink" xml:space="preserve" xmlns:serif="http://www.serif.com/" style="fill-rule:evenodd;clip-rule:evenodd;stroke-linejoin:round;stroke-miterlimit:2;"><path d="M75,90.625c-4.306,0 -7.986,-1.528 -11.042,-4.583c-3.055,-3.056 -4.583,-6.736 -4.583,-11.042c0,-4.306 1.528,-7.986 4.583,-11.042c3.056,-3.055 6.736,-4.583 11.042,-4.583c4.306,0 7.986,1.528 11.042,4.583c3.055,3.056 4.583,6.736 4.583,11.042c0,4.306 -1.528,7.986 -4.583,11.042c-3.056,3.055 -6.736,4.583 -11.042,4.583Zm0,59.375c-20.833,0 -38.542,-7.326 -53.125,-21.979c-14.583,-14.653 -21.875,-32.396 -21.875,-53.229l12.5,-0c0,17.361 6.076,32.152 18.229,44.375c12.153,12.222 26.91,18.333 44.271,18.333c17.361,-0 32.118,-6.076 44.271,-18.229c12.153,-12.153 18.229,-26.91 18.229,-44.271c0,-17.361 -6.076,-32.118 -18.229,-44.271c-12.153,-12.153 -26.91,-18.229 -44.271,-18.229c-9.583,-0 -18.542,2.118 -26.875,6.354c-8.333,4.236 -15.625,9.965 -21.875,17.188l21.667,-0l-0,12.5l-43.334,-0l0,-43.334l12.5,0l0,22.084c7.361,-8.611 16.042,-15.313 26.042,-20.105c10,-4.791 20.625,-7.187 31.875,-7.187c10.417,-0 20.174,1.979 29.271,5.937c9.097,3.959 17.014,9.306 23.75,16.042c6.736,6.736 12.083,14.653 16.042,23.75c3.958,9.097 5.937,18.854 5.937,29.271c-0,10.417 -1.979,20.174 -5.938,29.271c-3.958,9.097 -9.305,17.014 -16.041,23.75c-6.736,6.736 -14.653,12.083 -23.75,16.042c-9.097,3.958 -18.854,5.937 -29.271,5.937Z" style="fill-rule:nonzero;"/></svg>