<?xml version="1.0" encoding="UTF-8" standalone="no"?><!DOCTYPE svg PUBLIC "-//W3C//DTD SVG 1.1//EN" "http://www.w3.org/Graphics/SVG/1.1/DTD/svg11.dtd"><svg width="100%" height="100%" viewBox="0 0 167 167" version="1.1" xmlns="http://www.w3.org/2000/svg" xmlns:xlink="http://www.w3.org/1999/xlink" xml:space="preserve" xmlns:serif="http://www.serif.com/" style="fill-rule:evenodd;clip-rule:evenodd;stroke-linejoin:round;stroke-miterlimit:2;"><path d="M64.167,166.667l-4.167,-26.25c-2.639,-0.973 -5.417,-2.292 -8.333,-3.959c-2.917,-1.666 -5.486,-3.402 -7.709,-5.208l-24.583,11.25l-19.375,-34.167l22.5,-16.458c-0.278,-1.25 -0.451,-2.674 -0.521,-4.271c-0.069,-1.597 -0.104,-3.021 -0.104,-4.271c0,-1.25 0.035,-2.673 0.104,-4.27c0.07,-1.598 0.243,-3.021 0.521,-4.271l-22.5,-16.459l19.375,-34.166l24.583,11.25c2.223,-1.806 4.792,-3.542 7.709,-5.209c2.916,-1.666 5.694,-2.916 8.333,-3.75l4.167,-26.458l38.333,0l4.167,26.25c2.639,0.972 5.451,2.257 8.437,3.854c2.986,1.597 5.521,3.368 7.604,5.313l24.584,-11.25l19.375,34.166l-22.5,16.042c0.277,1.389 0.451,2.882 0.521,4.479c0.069,1.597 0.104,3.09 0.104,4.479c-0,1.389 -0.035,2.848 -0.104,4.375c-0.07,1.528 -0.244,2.986 -0.521,4.375l22.5,16.25l-19.375,34.167l-24.584,-11.25c-2.222,1.806 -4.757,3.576 -7.604,5.313c-2.847,1.736 -5.66,3.02 -8.437,3.854l-4.167,26.25l-38.333,-0Zm19.166,-56.25c7.5,-0 13.889,-2.639 19.167,-7.917c5.278,-5.278 7.917,-11.667 7.917,-19.167c-0,-7.5 -2.639,-13.889 -7.917,-19.166c-5.278,-5.278 -11.667,-7.917 -19.167,-7.917c-7.5,0 -13.889,2.639 -19.166,7.917c-5.278,5.277 -7.917,11.666 -7.917,19.166c0,7.5 2.639,13.889 7.917,19.167c5.277,5.278 11.666,7.917 19.166,7.917Zm0,-12.5c-4.027,-0 -7.465,-1.424 -10.312,-4.271c-2.847,-2.847 -4.271,-6.285 -4.271,-10.313c0,-4.027 1.424,-7.465 4.271,-10.312c2.847,-2.847 6.285,-4.271 10.312,-4.271c4.028,0 7.466,1.424 10.313,4.271c2.847,2.847 4.271,6.285 4.271,10.312c-0,4.028 -1.424,7.466 -4.271,10.313c-2.847,2.847 -6.285,4.271 -10.313,4.271Zm-9.166,56.25l18.333,-0l2.917,-23.334c4.583,-1.111 8.923,-2.847 13.021,-5.208c4.097,-2.361 7.812,-5.208 11.145,-8.542l22.084,9.584l8.333,-15l-19.583,-14.375c0.555,-2.361 1.007,-4.688 1.354,-6.98c0.347,-2.291 0.521,-4.618 0.521,-6.979c-0,-2.361 -0.139,-4.687 -0.417,-6.979c-0.278,-2.292 -0.764,-4.618 -1.458,-6.979l19.583,-14.375l-8.333,-15l-22.084,9.583c-3.194,-3.611 -6.805,-6.632 -10.833,-9.062c-4.028,-2.431 -8.472,-3.993 -13.333,-4.688l-2.917,-23.333l-18.333,0l-2.917,23.333c-4.722,0.973 -9.132,2.639 -13.229,5c-4.097,2.361 -7.743,5.278 -10.938,8.75l-22.083,-9.583l-8.333,15l19.583,14.375c-0.556,2.361 -1.007,4.688 -1.354,6.979c-0.347,2.292 -0.521,4.618 -0.521,6.979c0,2.361 0.174,4.688 0.521,6.98c0.347,2.291 0.798,4.618 1.354,6.979l-19.583,14.375l8.333,15l22.083,-9.584c3.334,3.334 7.049,6.181 11.146,8.542c4.097,2.361 8.438,4.097 13.021,5.208l2.917,23.334Z" style="fill-rule:nonzero;"/></svg>