<?xml version="1.0" encoding="UTF-8" standalone="no"?><!DOCTYPE svg PUBLIC "-//W3C//DTD SVG 1.1//EN" "http://www.w3.org/Graphics/SVG/1.1/DTD/svg11.dtd"><svg width="100%" height="100%" viewBox="0 0 166 134" version="1.1" xmlns="http://www.w3.org/2000/svg" xmlns:xlink="http://www.w3.org/1999/xlink" xml:space="preserve" xmlns:serif="http://www.serif.com/" style="fill-rule:evenodd;clip-rule:evenodd;stroke-linejoin:round;stroke-miterlimit:2;"><path d="M68.125,98.75c3.194,3.194 7.813,4.688 13.854,4.479c6.042,-0.208 10.452,-2.465 13.229,-6.771l45,-70.625l-69.791,45.625c-4.167,2.778 -6.389,7.223 -6.667,13.334c-0.278,6.111 1.181,10.764 4.375,13.958Zm14.792,-98.75c7.916,0 16.18,1.285 24.791,3.854c8.611,2.57 16.875,6.979 24.792,13.229l-10.833,7.709c-6.25,-4.167 -12.952,-7.257 -20.104,-9.271c-7.153,-2.014 -13.369,-3.021 -18.646,-3.021c-19.445,0 -36.042,6.944 -49.792,20.833c-13.75,13.889 -20.625,30.764 -20.625,50.625c0,6.25 0.868,12.57 2.604,18.959c1.736,6.389 4.202,12.291 7.396,17.708l120.625,0c3.056,-5 5.486,-10.833 7.292,-17.5c1.805,-6.667 2.708,-13.194 2.708,-19.583c0,-5.834 -0.868,-12.118 -2.604,-18.855c-1.736,-6.736 -4.827,-12.951 -9.271,-18.645l8.125,-10.834c5.278,7.778 9.236,15.591 11.875,23.438c2.639,7.847 4.097,15.729 4.375,23.646c0.278,8.333 -0.556,16.18 -2.5,23.541c-1.944,7.361 -4.792,14.167 -8.542,20.417c-1.666,3.194 -3.437,5.139 -5.312,5.833c-1.875,0.695 -4.202,1.042 -6.979,1.042l-118.959,0c-2.361,0 -4.687,-0.59 -6.979,-1.771c-2.291,-1.18 -3.993,-2.882 -5.104,-5.104c-3.611,-6.667 -6.389,-13.437 -8.333,-20.312c-1.945,-6.875 -2.917,-14.202 -2.917,-21.98c0,-11.527 2.188,-22.396 6.563,-32.604c4.375,-10.208 10.312,-19.097 17.812,-26.667c7.5,-7.569 16.285,-13.576 26.354,-18.02c10.07,-4.445 20.799,-6.667 32.188,-6.667Z" style="fill-rule:nonzero;"/></svg>