<?xml version="1.0" encoding="UTF-8" standalone="no"?><!DOCTYPE svg PUBLIC "-//W3C//DTD SVG 1.1//EN" "http://www.w3.org/Graphics/SVG/1.1/DTD/svg11.dtd"><svg width="100%" height="100%" viewBox="0 0 150 175" version="1.1" xmlns="http://www.w3.org/2000/svg" xmlns:xlink="http://www.w3.org/1999/xlink" xml:space="preserve" xmlns:serif="http://www.serif.com/" style="fill-rule:evenodd;clip-rule:evenodd;stroke-linejoin:round;stroke-miterlimit:2;"><path d="M50,12.5l0,-12.5l50,0l0,12.5l-50,0Zm18.75,93.125l12.5,0l0,-47.917l-12.5,0l0,47.917Zm6.25,69.167c-10.278,-0 -19.965,-1.98 -29.063,-5.938c-9.097,-3.958 -17.048,-9.34 -23.854,-16.146c-6.805,-6.805 -12.187,-14.757 -16.145,-23.854c-3.959,-9.097 -5.938,-18.785 -5.938,-29.062c0,-10.278 1.979,-19.966 5.938,-29.063c3.958,-9.097 9.34,-17.048 16.145,-23.854c6.806,-6.806 14.757,-12.188 23.855,-16.146c9.097,-3.958 18.784,-5.937 29.062,-5.937c9.306,-0 18.056,1.562 26.25,4.687c8.194,3.125 15.486,7.465 21.875,13.021l10.625,-10.625l8.75,8.75l-10.625,10.625c5,5.556 9.271,12.292 12.813,20.208c3.541,7.917 5.312,17.361 5.312,28.334c0,10.277 -1.979,19.965 -5.937,29.062c-3.959,9.097 -9.341,17.049 -16.146,23.854c-6.806,6.806 -14.757,12.188 -23.854,16.146c-9.098,3.958 -18.785,5.938 -29.063,5.938Zm0,-12.5c17.361,-0 32.118,-6.077 44.271,-18.23c12.153,-12.152 18.229,-26.909 18.229,-44.27c0,-17.361 -6.076,-32.118 -18.229,-44.271c-12.153,-12.153 -26.91,-18.229 -44.271,-18.229c-17.361,-0 -32.118,6.076 -44.271,18.229c-12.153,12.153 -18.229,26.91 -18.229,44.271c0,17.361 6.076,32.118 18.229,44.27c12.153,12.153 26.91,18.23 44.271,18.23Z" style="fill-rule:nonzero;"/></svg>