<?xml version="1.0" encoding="UTF-8" standalone="no"?><!DOCTYPE svg PUBLIC "-//W3C//DTD SVG 1.1//EN" "http://www.w3.org/Graphics/SVG/1.1/DTD/svg11.dtd"><svg width="100%" height="100%" viewBox="0 0 134 134" version="1.1" xmlns="http://www.w3.org/2000/svg" xmlns:xlink="http://www.w3.org/1999/xlink" xml:space="preserve" xmlns:serif="http://www.serif.com/" style="fill-rule:evenodd;clip-rule:evenodd;stroke-linejoin:round;stroke-miterlimit:2;"><path d="M12.5,133.333c-3.333,0 -6.25,-1.25 -8.75,-3.75c-2.5,-2.5 -3.75,-5.416 -3.75,-8.75l0,-29.791l12.5,-0l0,29.791l108.333,0l0,-29.791l12.5,-0l0,29.791c0,3.334 -1.25,6.25 -3.75,8.75c-2.5,2.5 -5.416,3.75 -8.75,3.75l-108.333,0Zm47.917,-31.875l-0,-77.291l-25,25l-8.959,-8.959l40.209,-40.208l40.208,40.208l-8.958,8.959l-25,-25l-0,77.291l-12.5,0Z" style="fill-rule:nonzero;"/></svg>