<?xml version="1.0" encoding="UTF-8" standalone="no"?><!DOCTYPE svg PUBLIC "-//W3C//DTD SVG 1.1//EN" "http://www.w3.org/Graphics/SVG/1.1/DTD/svg11.dtd"><svg width="100%" height="100%" viewBox="0 0 167 167" version="1.1" xmlns="http://www.w3.org/2000/svg" xmlns:xlink="http://www.w3.org/1999/xlink" xml:space="preserve" xmlns:serif="http://www.serif.com/" style="fill-rule:evenodd;clip-rule:evenodd;stroke-linejoin:round;stroke-miterlimit:2;"><path d="M71.667,105.625l54.166,-34.792l-54.166,-34.791l-0,69.583Zm-34.167,36.042c-3.333,-0 -6.25,-1.25 -8.75,-3.75c-2.5,-2.5 -3.75,-5.417 -3.75,-8.75l0,-116.667c0,-3.333 1.25,-6.25 3.75,-8.75c2.5,-2.5 5.417,-3.75 8.75,-3.75l116.667,0c3.333,0 6.25,1.25 8.75,3.75c2.5,2.5 3.75,5.417 3.75,8.75l-0,116.667c-0,3.333 -1.25,6.25 -3.75,8.75c-2.5,2.5 -5.417,3.75 -8.75,3.75l-116.667,-0Zm0,-12.5l116.667,-0l-0,-116.667l-116.667,0l0,116.667Zm-25,37.5c-3.333,-0 -6.25,-1.25 -8.75,-3.75c-2.5,-2.5 -3.75,-5.417 -3.75,-8.75l0,-129.167l12.5,0l0,129.167l129.167,-0l-0,12.5l-129.167,-0Zm25,-154.167l0,116.667l0,-116.667Z" style="fill-rule:nonzero;"/></svg>