<?xml version="1.0" encoding="UTF-8" standalone="no"?><!DOCTYPE svg PUBLIC "-//W3C//DTD SVG 1.1//EN" "http://www.w3.org/Graphics/SVG/1.1/DTD/svg11.dtd"><svg width="100%" height="100%" viewBox="0 0 184 100" version="1.1" xmlns="http://www.w3.org/2000/svg" xmlns:xlink="http://www.w3.org/1999/xlink" xml:space="preserve" xmlns:serif="http://www.serif.com/" style="fill-rule:evenodd;clip-rule:evenodd;stroke-linejoin:round;stroke-miterlimit:2;"><path d="M133.333,100l-8.75,-8.75l40.834,-41.25l-40.834,-41.25l8.75,-8.75l50,50l-50,50Zm-83.333,0l-50,-50l50,-50l8.75,8.75l-40.833,41.25l40.833,41.25l-8.75,8.75Zm8.333,-42.708c-1.944,-0 -3.645,-0.73 -5.104,-2.188c-1.458,-1.458 -2.187,-3.16 -2.187,-5.104c-0,-1.944 0.729,-3.646 2.187,-5.104c1.459,-1.458 3.16,-2.188 5.104,-2.188c1.945,0 3.646,0.73 5.105,2.188c1.458,1.458 2.187,3.16 2.187,5.104c0,1.944 -0.729,3.646 -2.187,5.104c-1.459,1.459 -3.16,2.188 -5.105,2.188Zm33.334,-0c-1.945,-0 -3.646,-0.73 -5.105,-2.188c-1.458,-1.458 -2.187,-3.16 -2.187,-5.104c0,-1.944 0.729,-3.646 2.188,-5.104c1.458,-1.458 3.159,-2.188 5.104,-2.188c1.944,0 3.646,0.73 5.104,2.188c1.458,1.458 2.187,3.16 2.187,5.104c0,1.944 -0.729,3.646 -2.187,5.104c-1.458,1.459 -3.16,2.188 -5.104,2.188Zm33.333,-0c-1.944,-0 -3.646,-0.73 -5.104,-2.188c-1.458,-1.458 -2.188,-3.16 -2.188,-5.104c0,-1.944 0.73,-3.646 2.188,-5.104c1.458,-1.458 3.16,-2.188 5.104,-2.188c1.944,0 3.646,0.73 5.104,2.188c1.458,1.458 2.188,3.16 2.188,5.104c-0,1.944 -0.73,3.646 -2.188,5.104c-1.458,1.459 -3.16,2.188 -5.104,2.188Z" style="fill-rule:nonzero;"/></svg>